<?xml version="1.0" standalone="no"?>
<!DOCTYPE svg PUBLIC "-//W3C//DTD SVG 20010904//EN"
 "http://www.w3.org/TR/2001/REC-SVG-20010904/DTD/svg10.dtd">
<svg version="1.0" xmlns="http://www.w3.org/2000/svg"
 width="1024.000000pt" height="1024.000000pt" viewBox="0 0 1024.000000 1024.000000"
 preserveAspectRatio="xMidYMid meet">

<g transform="translate(0.000000,1024.000000) scale(0.100000,-0.100000)"
fill="#000000" stroke="none">
<path d="M5352 9860 c-37 -34 -28 -32 -217 -30 -371 3 -936 -79 -1290 -189
-276 -85 -307 -100 -334 -156 -25 -54 -37 -63 -113 -82 -129 -32 -577 -260
-848 -431 -298 -188 -308 -196 -287 -251 13 -37 15 -34 -106 -131 l-47 -39
-45 16 -45 15 -58 -50 c-72 -63 -251 -247 -361 -372 -46 -52 -99 -112 -117
-132 -40 -44 -74 -98 -74 -117 0 -8 9 -25 21 -37 l21 -22 -69 -85 c-75 -93
-161 -215 -186 -262 -9 -16 -41 -59 -72 -95 -129 -149 -317 -470 -403 -690
-60 -153 -91 -248 -133 -405 -99 -377 -113 -479 -113 -780 1 -195 4 -235 27
-357 43 -222 109 -395 239 -631 39 -70 69 -129 67 -131 -2 -1 -61 -30 -132
-64 -109 -52 -127 -64 -127 -84 0 -45 82 -303 155 -490 41 -104 75 -192 75
-196 0 -15 52 -62 75 -68 27 -7 56 -49 130 -189 26 -49 54 -97 61 -106 13 -14
13 -18 0 -28 -7 -6 -19 -24 -25 -39 -11 -26 -6 -40 53 -153 99 -191 103 -216
46 -300 -33 -49 -35 -65 -19 -139 23 -109 93 -151 263 -156 l111 -3 80 -93
c179 -210 450 -468 493 -468 7 0 21 5 31 12 17 10 29 3 93 -53 163 -144 427
-348 497 -384 24 -12 46 -15 73 -11 35 6 39 4 49 -21 20 -53 44 -72 218 -168
311 -172 793 -361 1125 -440 403 -96 556 -113 1016 -110 343 3 435 9 723 51
125 18 431 93 526 128 36 14 145 50 241 81 96 31 222 75 280 98 129 51 494
232 575 285 264 171 345 227 450 306 121 91 213 166 273 220 25 23 40 30 66
28 36 -3 50 6 161 107 106 97 245 243 327 344 74 91 81 97 117 97 44 0 137 44
155 74 8 11 19 39 26 61 16 52 39 102 91 195 52 94 118 226 155 309 27 62 28
63 61 58 31 -5 35 -3 60 41 60 101 248 606 293 782 22 90 55 280 75 445 8 66
24 149 35 185 59 191 85 480 61 680 -11 91 -74 356 -93 393 -5 11 -5 17 1 17
6 0 18 14 27 31 15 29 14 39 -5 138 -12 58 -35 180 -52 271 -47 253 -136 566
-230 804 -86 216 -349 716 -389 737 -8 4 -42 18 -75 30 -33 13 -63 27 -67 33
-3 5 11 26 33 47 21 20 39 42 39 48 0 17 -24 52 -128 186 -51 66 -124 161
-162 210 -37 50 -89 110 -114 134 -45 44 -46 44 -90 34 -58 -13 -64 -10 -237
148 -185 169 -172 153 -166 199 6 58 -7 70 -78 72 -56 1 -66 4 -155 65 -52 35
-108 74 -123 87 l-28 22 20 45 c29 62 26 77 -17 118 -38 37 -403 238 -478 265
-47 16 -55 13 -77 -31 -13 -24 -22 -30 -37 -26 -11 3 -20 8 -20 12 0 18 -108
86 -196 122 -55 22 -112 46 -129 53 -16 7 -55 22 -85 33 -30 11 -87 33 -126
48 -83 31 -116 33 -243 10 -91 -17 -95 -17 -108 1 -8 11 -17 31 -20 45 -11 56
-42 79 -143 105 -89 23 -354 75 -555 110 -49 8 -109 19 -132 25 -63 14 -76 12
-111 -21z m300 -49 c256 -44 474 -91 531 -115 38 -15 57 -46 57 -92 0 -13 -4
-24 -10 -24 -5 0 -10 13 -10 29 0 38 -20 53 -79 59 -47 4 -50 3 -65 -27 -20
-38 -29 -41 -16 -5 13 33 14 32 -15 26 -16 -3 -25 0 -25 9 0 7 -3 9 -7 6 -3
-4 -16 -1 -29 7 -27 18 -144 49 -289 75 -60 11 -126 25 -145 31 -54 16 -107 4
-115 -27 -11 -47 -96 -456 -125 -608 -16 -82 -54 -274 -84 -425 -30 -151 -59
-297 -64 -325 -19 -99 -12 8 9 130 11 66 24 148 29 182 10 64 51 294 95 528
13 72 40 220 60 330 33 183 53 275 61 275 2 0 108 -18 236 -39z m-373 -28 c0
-5 -9 -26 -20 -48 -10 -22 -17 -31 -14 -19 5 20 3 20 -47 9 -29 -6 -63 -16
-75 -23 -27 -15 -83 -16 -83 -1 0 7 -9 9 -22 4 -13 -3 -36 -10 -53 -15 -16 -4
-39 -11 -49 -16 -17 -7 -19 -4 -13 25 6 27 4 32 -11 27 -9 -2 -64 -7 -122 -11
-288 -17 -674 -91 -749 -144 -14 -10 -42 -24 -63 -30 -20 -7 -47 -22 -61 -35
-14 -13 -29 -21 -32 -18 -3 4 -3 0 0 -9 11 -30 -37 -57 -160 -89 -135 -36
-148 -41 -169 -72 -21 -30 -21 -27 13 86 16 53 29 100 29 103 0 4 50 24 111
45 345 119 740 199 1121 227 149 11 470 13 469 4z m1431 -253 c41 -15 118 -44
170 -63 87 -33 210 -84 218 -92 2 -2 -1 -12 -7 -23 -11 -21 -32 -21 -76 -2
-25 11 -71 30 -209 86 -61 25 -124 54 -142 64 -17 11 -40 20 -50 19 -13 0 -9
-5 14 -15 17 -8 32 -16 32 -17 0 -9 -66 7 -72 17 -8 12 -21 -2 -64 -66 -13
-21 -29 -38 -34 -38 -6 0 -24 -29 -42 -65 -17 -36 -33 -64 -35 -61 -3 2 13 41
35 85 38 77 44 101 16 64 -7 -10 -16 -18 -21 -18 -5 0 -29 -17 -54 -37 -25
-21 -53 -38 -63 -38 -9 0 -16 -7 -16 -17 0 -9 -3 -14 -6 -10 -14 14 14 54 100
140 50 51 100 103 109 117 10 14 15 18 11 10 -4 -8 -18 -30 -31 -47 -17 -23
-19 -31 -8 -27 9 4 29 26 46 50 l30 44 37 -16 c20 -9 71 -28 112 -44z m-2743
-6 c-3 -3 -12 -4 -19 -1 -8 3 -5 6 6 6 11 1 17 -2 13 -5z m2596 -69 c-3 -9 -8
-14 -10 -11 -3 3 -2 9 2 15 9 16 15 13 8 -4z m332 -95 c-11 -5 -29 -8 -40 -8
-16 0 -15 2 5 8 34 11 60 11 35 0z m-1797 -7 c-10 -2 -28 -2 -40 0 -13 2 -5 4
17 4 22 1 32 -1 23 -4z m-170 -10 c-16 -2 -40 -2 -55 0 -16 2 -3 4 27 4 30 0
43 -2 28 -4z m1899 1 c-3 -3 -12 -4 -19 -1 -8 3 -5 6 6 6 11 1 17 -2 13 -5z
m-3494 -66 c-6 -76 -10 -91 -23 -83 -5 3 -10 -1 -10 -10 0 -26 -40 2 -52 36
-9 28 -12 29 -27 15 -10 -9 -24 -16 -33 -16 -8 0 -61 -29 -119 -64 -57 -36
-143 -88 -190 -116 -116 -67 -117 -68 -77 -118 18 -23 39 -41 46 -41 6 -1 12
-6 12 -12 0 -6 -11 -8 -27 -5 -16 3 -50 8 -76 12 -26 3 -55 13 -63 21 -20 20
-53 11 -166 -44 -86 -42 -144 -83 -117 -83 6 0 9 -8 6 -19 -6 -26 -4 -28 98
-105 50 -38 92 -71 95 -74 20 -23 -203 135 -254 180 l-30 28 24 17 c152 110
463 293 693 408 148 74 274 135 282 135 10 0 12 -15 8 -62z m1480 55 c-13 -2
-33 -2 -45 0 -13 2 -3 4 22 4 25 0 35 -2 23 -4z m2675 -73 c87 -44 192 -102
235 -130 68 -44 77 -53 72 -73 -9 -30 -68 -116 -76 -111 -4 2 -21 -12 -38 -31
-30 -35 -32 -36 -108 -36 -43 0 -105 4 -138 9 -100 15 -282 -13 -324 -51 l-25
-22 18 28 c41 65 4 29 -76 -76 -48 -62 -133 -165 -190 -229 -279 -316 -465
-529 -481 -552 -10 -14 -22 -26 -28 -26 -22 0 35 77 231 311 114 136 197 246
355 474 65 94 178 251 250 350 72 99 137 195 144 213 7 17 16 32 18 32 3 0 75
-36 161 -80z m-2760 63 c-10 -2 -28 -2 -40 0 -13 2 -5 4 17 4 22 1 32 -1 23
-4z m-1231 -35 c-1 -18 2 -46 6 -63 l7 -30 -15 28 c-14 25 -17 26 -31 12 -9
-8 -20 -13 -25 -10 -4 3 -20 -2 -34 -11 -24 -15 -25 -15 -25 3 0 25 17 46 59
78 47 34 60 32 58 -7z m1108 22 c-22 -5 -71 -10 -110 -13 l-70 -5 80 13 c91
14 169 18 100 5z m-186 -24 c-2 -2 -31 -6 -64 -9 -39 -4 -50 -3 -30 2 31 9
102 14 94 7z m-132 -22 c-3 -3 -12 -4 -19 -1 -8 3 -5 6 6 6 11 1 17 -2 13 -5z
m2076 -112 c-14 -34 -28 -60 -31 -58 -2 3 9 32 24 65 15 34 29 60 30 58 2 -2
-8 -31 -23 -65z m-3045 -91 c1 -55 -1 -102 -5 -104 -9 -6 -16 147 -8 181 3 12
6 22 8 22 1 0 3 -45 5 -99z m1484 8 c166 -18 185 -33 86 -69 -85 -30 -190 -84
-263 -133 -120 -82 -279 -268 -326 -384 -13 -31 -18 -37 -14 -18 3 17 17 52
30 78 28 55 31 64 12 45 -15 -15 -63 -121 -72 -161 -4 -15 -11 -29 -15 -32
-12 -8 17 82 51 156 17 38 48 84 68 103 20 19 59 58 86 86 28 28 65 60 83 72
18 11 31 22 29 25 -7 7 -100 -43 -207 -111 -52 -33 -147 -90 -210 -126 -182
-105 -459 -277 -534 -331 -106 -78 -286 -231 -341 -291 -192 -208 -282 -322
-368 -465 -147 -244 -235 -459 -321 -783 -69 -261 -124 -591 -146 -885 -14
-182 -20 -231 -29 -217 -4 7 -3 49 2 94 14 132 13 715 -1 913 -7 99 -15 263
-19 365 -5 162 -3 204 17 335 13 83 26 184 30 225 6 71 7 73 18 46 10 -23 10
-56 2 -145 -6 -63 -13 -124 -15 -136 -9 -35 -35 -358 -31 -363 7 -6 13 27 25
128 42 334 52 494 37 554 -3 12 -21 31 -40 41 -22 12 -31 22 -24 26 7 4 -4 14
-28 25 -62 28 -271 25 -394 -5 -109 -27 -117 -30 -99 -42 9 -6 -1 -9 -28 -9
-24 0 -43 3 -43 6 0 25 282 319 420 438 243 211 549 413 833 551 454 220 898
350 1357 398 81 9 286 6 382 -4z m-1853 -21 c-19 -18 -90 -50 -97 -44 -2 3 8
10 23 16 15 6 39 19 53 30 27 22 44 20 21 -2z m301 -118 c-8 -5 -22 -9 -30 -9
-10 0 -8 3 5 9 27 12 43 12 25 0z m-121 -43 c-41 -18 -102 -49 -135 -69 -72
-43 -104 -60 -104 -54 0 15 270 155 300 156 8 0 -19 -15 -61 -33z m4541 -29
c-17 -24 -62 -77 -101 -118 -70 -74 -56 -54 63 88 68 80 85 94 38 30z m226
-29 c65 -48 92 -75 86 -81 -17 -17 -61 1 -110 45 -26 24 -59 49 -74 56 -23 12
-25 16 -15 32 7 11 13 19 14 19 2 0 46 -32 99 -71z m-5201 41 c18 -20 17 -20
-38 -19 -32 1 -63 -4 -71 -10 -8 -7 -25 -11 -38 -9 -20 4 -18 6 17 23 85 40
105 42 130 15z m20 -40 c-3 -5 -17 -10 -30 -10 -13 0 -27 5 -30 10 -4 6 8 10
30 10 22 0 34 -4 30 -10z m-225 -20 c-8 -5 -19 -10 -25 -10 -5 0 -3 5 5 10 8
5 20 10 25 10 6 0 3 -5 -5 -10z m390 -54 c0 -4 -216 -151 -250 -170 -42 -24
17 20 124 93 118 80 126 85 126 77z m5268 -31 c8 -7 1 -51 -27 -160 -49 -193
-91 -469 -106 -695 -8 -114 -30 -224 -50 -253 -8 -12 -16 -31 -16 -42 -1 -17
-2 -17 -6 -2 -2 9 5 36 16 60 19 41 34 144 61 422 13 137 43 316 76 460 36
150 36 157 19 179 -13 18 -16 18 -32 4 -10 -9 -40 -31 -67 -50 -43 -29 -49
-39 -53 -73 -4 -45 -45 -353 -69 -519 -11 -75 -25 -131 -46 -175 -16 -37 -42
-98 -58 -136 -94 -235 -184 -380 -349 -563 -93 -103 -301 -265 -318 -248 -8 7
-9 6 47 38 52 30 109 84 111 104 2 19 4 24 18 59 14 33 11 414 -4 448 -9 21
-25 22 -25 1 0 -8 5 -12 10 -9 6 3 10 1 10 -4 0 -20 -20 -11 -29 12 -11 29
-37 51 -51 42 -5 -3 -11 -25 -11 -48 -1 -23 -3 -33 -6 -22 -2 11 -7 31 -10 45
-6 25 -6 25 -13 -5 -5 -21 -8 -24 -9 -9 -2 31 -67 194 -87 215 -26 28 -41 23
-71 -23 -64 -99 -111 -153 -187 -214 -108 -86 -149 -99 -271 -81 l-90 13 35
33 c19 17 69 57 110 89 76 58 302 237 420 333 36 29 148 118 250 197 102 78
232 180 290 225 217 172 432 325 491 351 28 12 84 13 97 1z m-6062 -219 c92
-38 284 -135 284 -143 -1 -5 -24 -25 -53 -46 -51 -36 -151 -124 -360 -316 -98
-90 -97 -89 23 30 114 114 256 239 337 299 36 26 36 29 0 36 -25 4 -64 20
-157 62 -72 32 -123 44 -131 29 -4 -7 -38 -37 -76 -67 -76 -60 -201 -200 -180
-200 8 0 17 -9 20 -20 7 -28 -34 -56 -61 -41 -21 11 -45 -9 -91 -76 -12 -18
-28 -33 -36 -33 -8 0 -23 -13 -34 -29 -13 -18 -32 -30 -53 -34 -18 -2 -34 -4
-35 -3 -15 13 279 340 426 473 63 56 115 103 116 103 1 0 28 -11 61 -24z
m5911 -33 c-3 -10 -5 -2 -5 17 0 19 2 27 5 18 2 -10 2 -26 0 -35z m313 2 c13
-14 21 -25 18 -25 -2 0 -15 11 -28 25 -13 14 -21 25 -18 25 2 0 15 -11 28 -25z
m85 -74 c-3 -3 -18 8 -33 23 l-27 29 32 -23 c18 -13 30 -26 28 -29z m-408 7
c-3 -7 -5 -2 -5 12 0 14 2 19 5 13 2 -7 2 -19 0 -25z m-6037 -41 c0 -2 -10
-12 -22 -23 l-23 -19 19 23 c18 21 26 27 26 19z m2307 -19 c-3 -8 -6 -5 -6 6
-1 11 2 17 5 13 3 -3 4 -12 1 -19z m3720 -40 c-3 -7 -5 -2 -5 12 0 14 2 19 5
13 2 -7 2 -19 0 -25z m-2830 -10 c-3 -8 -6 -5 -6 6 -1 11 2 17 5 13 3 -3 4
-12 1 -19z m3677 -207 c88 -112 171 -216 183 -231 l22 -26 -66 -33 c-67 -33
-98 -37 -44 -5 29 17 29 18 14 48 l-16 31 23 -20 c30 -26 19 -7 -47 80 -127
169 -156 204 -220 264 -37 35 -59 60 -48 57 14 -5 17 -4 9 4 -13 13 -54 0 -82
-27 -11 -10 -38 -29 -60 -42 -32 -19 -38 -27 -29 -35 7 -6 19 -20 27 -31 9
-12 2 -9 -16 8 -17 15 -34 24 -38 20 -4 -5 -19 -8 -34 -8 -23 -1 -21 3 28 47
70 63 199 131 219 115 7 -6 86 -103 175 -216z m-857 112 c-2 -16 -4 -5 -4 22
0 28 2 40 4 28 2 -13 2 -35 0 -50z m-3770 0 c-3 -10 -5 -2 -5 17 0 19 2 27 5
18 2 -10 2 -26 0 -35z m30 -60 c-2 -16 -4 -5 -4 22 0 28 2 40 4 28 2 -13 2
-35 0 -50z m1088 23 c174 -7 328 -40 566 -119 275 -92 449 -176 449 -216 -1
-14 -2 -14 -11 2 -5 9 -18 17 -27 17 -9 0 -67 25 -129 55 -154 76 -449 168
-608 189 l-40 5 45 -14 c25 -7 106 -30 180 -51 165 -45 377 -133 463 -193 23
-15 48 -30 55 -32 17 -6 -70 -93 -126 -126 -20 -13 -68 -33 -106 -45 -138 -42
-341 -8 -504 85 -138 79 -233 129 -238 124 -2 -2 48 -33 112 -68 63 -35 125
-71 137 -80 l21 -16 -32 -32 c-36 -36 -94 -136 -112 -194 -7 -21 -14 -36 -17
-33 -3 3 2 26 11 52 19 58 10 104 -37 176 -34 52 -48 57 -22 9 20 -39 14 -50
-25 -47 -16 1 -32 -3 -34 -8 -2 -6 -5 -3 -5 7 -1 18 -40 67 -42 54 -1 -4 -2
-10 -3 -14 -1 -5 -6 -16 -12 -27 -17 -29 -67 -9 -75 30 -4 16 -7 -291 -8 -683
l-1 -712 38 25 c20 14 37 29 37 34 0 5 4 12 9 17 5 4 6 3 3 -4 -4 -6 -1 -13 5
-16 7 -2 -2 -11 -19 -21 -18 -9 -49 -30 -68 -48 l-36 -31 -27 24 c-15 13 -31
27 -36 31 -5 3 -2 6 7 4 8 -1 22 -7 30 -14 12 -10 15 -1 20 65 4 43 9 350 12
683 4 454 2 600 -6 583 -8 -16 -27 -26 -68 -34 -74 -16 -179 -65 -186 -88 -3
-9 -1 -39 4 -67 11 -60 7 -68 -9 -17 -7 21 -23 58 -36 82 -13 24 -21 47 -18
52 3 5 0 17 -5 26 -10 17 -10 17 -11 -1 0 -14 -8 -8 -30 22 -16 23 -48 54 -70
69 l-41 26 -97 -29 c-87 -26 -112 -29 -232 -29 l-135 0 -97 47 c-54 26 -98 49
-98 52 0 6 45 -12 76 -31 19 -12 21 -11 22 22 1 26 -2 34 -11 28 -8 -4 -7 -1
2 10 7 9 13 32 13 52 0 19 4 38 9 41 5 3 7 9 4 14 -3 5 28 28 70 50 41 23 75
46 75 51 0 13 2 14 -117 -40 -59 -26 -120 -51 -135 -55 -14 -3 -40 -18 -57
-32 -17 -14 -31 -21 -31 -16 0 58 394 227 725 311 162 41 414 72 525 64 19 -1
94 -5 165 -7z m2642 -178 c-2 -29 -3 -8 -3 47 0 55 1 79 3 53 2 -26 2 -71 0
-100z m-3730 100 c-3 -8 -6 -5 -6 6 -1 11 2 17 5 13 3 -3 4 -12 1 -19z m3881
-43 c-3 -3 -9 2 -12 12 -6 14 -5 15 5 6 7 -7 10 -15 7 -18z m86 -36 c73 -61
279 -262 427 -416 236 -246 372 -421 601 -776 164 -254 236 -381 360 -632 54
-110 116 -234 138 -275 35 -67 74 -170 64 -170 -2 0 -12 17 -23 38 -63 121
-295 268 -521 330 -85 23 -113 26 -275 26 -176 1 -183 0 -325 -36 -316 -82
-538 -194 -880 -443 -346 -252 -780 -657 -965 -901 -113 -149 -294 -488 -272
-510 3 -3 69 11 148 30 268 65 306 70 534 71 201 0 214 -1 305 -28 230 -68
394 -184 517 -364 24 -36 19 -39 -36 -23 -18 5 -71 10 -118 11 -72 1 -89 5
-121 27 -111 77 -145 97 -230 138 -127 62 -171 74 -287 81 -77 4 -130 0 -230
-16 -140 -24 -345 -75 -464 -116 -74 -25 -93 -27 -69 -8 21 17 418 123 461
123 18 0 19 2 7 11 -12 8 -10 9 7 4 12 -3 24 -1 28 5 4 6 27 8 58 5 33 -3 45
-2 32 3 -13 6 19 11 95 15 168 10 224 9 239 -5 10 -11 11 -10 6 4 -9 23 -35
28 -161 28 -129 0 -233 -16 -429 -66 -191 -49 -317 -90 -397 -130 -60 -30 -98
-42 -98 -30 0 2 25 67 55 143 67 165 157 340 252 489 75 117 201 332 266 454
68 126 253 407 373 565 138 180 238 304 444 545 252 296 330 410 439 641 54
114 71 176 101 360 22 136 27 349 10 459 -18 117 -72 291 -106 342 -18 26 -30
48 -27 48 3 0 33 -23 67 -51z m416 -5 c30 -32 45 -50 32 -42 -21 14 -98 98
-90 98 2 0 28 -25 58 -56z m-6963 -5 c-43 -23 -57 -20 -32 5 9 9 28 16 43 16
26 -1 25 -2 -11 -21z m7143 -136 c0 -7 -39 17 -46 28 -3 6 5 3 20 -6 14 -10
26 -19 26 -22z m-6950 13 c0 -2 -7 -9 -15 -16 -13 -11 -14 -10 -9 4 5 14 24
23 24 12z m6110 -207 c-8 -19 -9 -10 -5 40 3 35 6 87 7 115 1 28 4 10 5 -40 2
-50 -1 -101 -7 -115z m905 149 c19 -22 19 -22 -10 2 -48 40 -51 43 -30 32 11
-6 29 -21 40 -34z m-7367 -38 c-17 -22 -59 -85 -136 -203 -14 -20 -27 -35 -29
-33 -3 2 7 23 21 45 15 23 22 41 17 41 -12 0 -51 -63 -51 -82 0 -18 -37 -54
-46 -45 -4 3 3 22 14 41 34 58 155 217 160 211 7 -7 42 25 42 39 0 6 -9 0 -20
-14 -27 -34 -25 -16 1 20 17 22 24 26 34 17 10 -10 9 -17 -7 -37z m4883 -48
c-6 -2 -18 -10 -25 -18 -8 -8 -18 -14 -21 -14 -4 0 -34 -20 -66 -44 -83 -63
-202 -106 -312 -113 -71 -5 -90 -3 -105 10 -9 8 -33 15 -52 15 -19 0 -62 8
-95 18 -98 28 -101 28 -120 -19 -30 -74 -106 -351 -108 -392 l-2 -40 109 3
c97 2 108 1 96 -13 -10 -12 -10 -15 2 -15 10 0 21 23 33 68 21 83 38 133 42
128 5 -5 -24 -223 -48 -356 -19 -112 -74 -310 -85 -310 -4 0 -3 8 1 18 12 31
46 194 56 271 22 174 22 171 8 171 -8 0 -46 -9 -84 -20 -38 -11 -81 -20 -95
-19 l-25 1 25 8 c20 6 16 8 -23 9 -33 1 -46 -3 -41 -10 5 -8 1 -8 -14 0 -28
15 -32 14 -25 -4 3 -9 0 -57 -6 -108 -26 -216 -40 -348 -47 -437 -8 -95 -8
-95 -15 -40 -10 79 -10 373 0 522 8 117 14 141 66 295 60 177 115 305 142 335
22 25 50 23 145 -12 104 -38 177 -46 275 -30 163 25 302 88 378 169 l30 32 9
-28 c6 -19 5 -28 -3 -31z m711 -47 c44 -175 -1 -381 -124 -566 -61 -91 -185
-218 -240 -244 -18 -8 -24 -10 -13 -3 35 22 156 151 200 213 104 146 147 262
159 425 6 79 5 83 -8 55 -14 -29 -15 -28 -11 30 2 33 2 49 -1 36 -7 -27 -55
-109 -96 -162 -30 -39 -36 -55 -16 -43 24 15 -32 -52 -89 -107 -69 -67 -213
-170 -173 -124 22 25 23 27 5 21 -42 -16 -49 -17 -25 -2 14 8 32 13 42 10 9
-3 19 0 23 5 3 7 0 8 -9 5 -33 -13 -14 7 26 27 51 26 174 124 182 145 3 8 -20
-7 -52 -34 -67 -59 -139 -105 -242 -157 -64 -33 -85 -38 -143 -39 -63 -1 -68
-3 -79 -28 -11 -23 -13 -25 -24 -10 -11 15 -13 13 -19 -13 -13 -56 -15 -50
-11 25 5 87 52 223 89 258 28 27 56 29 125 13 61 -15 116 -9 179 19 57 25 253
221 278 278 26 61 45 52 67 -33z m-3837 -17 c70 -99 172 -191 263 -236 69 -33
84 -37 157 -37 55 0 90 5 113 17 33 17 33 17 42 -8 6 -14 22 -50 36 -80 33
-69 54 -148 53 -194 -1 -21 -3 -27 -6 -15 -7 29 -23 43 -23 20 0 -18 -1 -17
-20 3 -11 12 -20 31 -21 44 0 23 0 23 -9 2 -5 -12 -12 -43 -15 -69 -4 -26 -10
-43 -14 -38 -6 8 -117 50 -223 83 -32 10 -60 14 -63 9 -3 -4 13 -22 36 -39 23
-16 38 -30 33 -30 -13 0 -88 61 -161 132 -90 87 -183 235 -200 318 -3 16 -16
51 -29 77 l-23 48 -2 -85 c-2 -121 0 -136 22 -223 26 -103 76 -201 159 -312
77 -103 135 -160 204 -200 26 -15 45 -30 42 -32 -3 -3 -37 17 -76 43 -78 52
-200 177 -257 262 -81 122 -140 326 -131 451 5 64 38 161 55 161 4 -1 31 -33
58 -72z m685 -6 c116 -69 300 -108 440 -92 63 8 202 42 262 65 21 8 89 -58
119 -117 12 -23 47 -114 79 -203 44 -123 59 -180 65 -245 6 -72 23 -710 18
-710 -3 0 -120 68 -145 84 -15 10 -25 22 -22 27 3 5 -1 6 -8 4 -16 -6 -56 20
-46 30 4 4 45 -12 92 -36 47 -24 80 -46 75 -50 -6 -4 -3 -9 7 -13 9 -3 18 -5
19 -4 1 2 -4 50 -11 108 -13 100 -38 340 -51 480 l-5 65 -62 0 c-33 1 -98 5
-143 9 -64 7 -83 12 -83 24 0 8 -2 13 -5 10 -3 -3 -2 -25 4 -49 5 -24 14 -87
21 -139 6 -52 14 -106 17 -120 3 -14 3 -23 0 -20 -7 6 -38 150 -62 285 -9 50
-18 99 -21 110 -3 13 0 11 11 -7 21 -37 68 -44 174 -26 63 11 88 12 94 4 5 -6
6 0 4 14 -8 37 -94 340 -106 373 -18 46 -48 53 -148 32 -130 -27 -133 -28
-135 -72 -1 -37 -1 -37 -5 -5 -2 17 -7 32 -11 32 -4 0 -7 -71 -7 -157 0 -86
-2 -149 -3 -139 -4 16 -5 16 -18 -1 -12 -17 -13 -16 -14 9 0 15 -6 30 -12 34
-7 4 -10 4 -6 0 3 -4 2 -21 -4 -38 -8 -22 -13 -26 -19 -16 -7 10 -9 9 -9 -4 0
-14 9 -18 40 -18 22 0 40 -3 40 -8 0 -4 -20 -6 -45 -4 -51 4 -45 -11 -65 177
-6 61 -19 128 -27 150 -16 40 -18 41 -97 59 -155 34 -291 121 -272 173 6 15 9
14 19 -7 7 -14 37 -40 67 -58z m-1837 61 c-7 -2 -19 -2 -25 0 -7 3 -2 5 12 5
14 0 19 -2 13 -5z m-50 -10 c-7 -2 -21 -2 -30 0 -10 3 -4 5 12 5 17 0 24 -2
18 -5z m-21 -140 c29 -29 31 -37 29 -90 -3 -78 -25 -173 -55 -231 -37 -72
-136 -192 -198 -239 -84 -63 -260 -147 -403 -191 -148 -46 -216 -58 -243 -43
-55 29 -69 159 -27 249 32 69 140 207 238 303 61 61 77 83 77 106 0 16 6 35
13 43 10 12 9 12 -5 1 -10 -7 -18 -11 -18 -7 0 3 -9 -3 -20 -14 -11 -11 -28
-20 -37 -20 -12 1 -7 6 12 15 23 10 26 14 10 14 -11 0 -52 -17 -91 -38 -108
-61 -257 -236 -338 -401 l-18 -35 26 30 25 30 -9 -35 c-5 -19 -14 -67 -20
-107 -9 -56 -15 -72 -31 -76 -10 -3 -22 -13 -25 -24 -36 -106 -109 -266 -100
-218 l6 30 -19 -34 c-10 -19 -20 -30 -23 -25 -3 5 -3 4 -2 -3 2 -7 -15 -53
-37 -104 -21 -51 -39 -97 -39 -103 0 -6 -9 -22 -20 -36 l-20 -25 0 23 c0 27
30 148 67 272 60 200 218 519 327 662 12 14 38 51 60 81 43 63 76 83 279 171
198 86 289 106 484 103 112 -2 113 -2 145 -34z m3218 17 c0 -5 -7 -10 -16 -10
-8 0 -12 -4 -9 -10 3 -5 1 -10 -5 -10 -6 0 -13 7 -16 15 -4 8 -10 12 -15 9 -5
-3 -9 0 -9 5 0 6 16 11 35 11 19 0 35 -4 35 -10z m3979 -126 c268 -471 427
-895 481 -1279 6 -44 13 -90 16 -102 2 -13 0 -23 -5 -23 -5 0 -12 30 -16 68
-7 74 -49 263 -66 302 -7 14 -13 41 -14 60 -3 38 -73 224 -104 274 -11 17 -53
98 -95 179 -42 82 -95 176 -118 209 -22 34 -35 57 -28 53 19 -12 3 30 -31 79
-15 22 -31 55 -34 71 -5 22 -4 26 4 15 5 -8 12 -12 15 -9 7 7 -97 171 -117
183 -13 8 -20 8 -26 -3 -7 -10 -13 -11 -31 -1 -18 10 -20 9 -13 -2 4 -7 39
-59 76 -116 76 -115 124 -197 109 -189 -5 4 -42 59 -82 124 -96 155 -133 201
-168 205 -18 3 -6 7 33 12 33 4 74 12 90 16 17 4 35 7 40 6 6 -1 43 -61 84
-132z m-7148 89 c13 -16 12 -17 -3 -4 -10 7 -18 15 -18 17 0 8 8 3 21 -13z
m6809 -13 c-20 -5 -39 -5 -44 1 -6 5 7 9 35 8 l44 -1 -35 -8z m-3686 -16 c3
-8 2 -12 -4 -9 -6 3 -10 10 -10 16 0 14 7 11 14 -7z m1983 -36 c-3 -7 -5 -2
-5 12 0 14 2 19 5 13 2 -7 2 -19 0 -25z m-837 -40 c-14 -11 -19 -17 -13 -13 7
3 -1 -26 -17 -64 -45 -105 -80 -246 -82 -331 l-2 -75 -6 75 c-5 55 -7 64 -10
35 -1 -24 -4 -31 -7 -19 -2 12 5 79 17 150 16 99 27 139 51 180 30 53 77 100
88 88 3 -3 -5 -14 -19 -26z m845 -124 c-10 -61 -15 -139 -14 -213 3 -116 -4
-152 -23 -133 -6 6 -17 8 -25 5 -16 -6 -13 11 18 111 11 32 19 86 19 120 1 33
5 81 11 106 5 25 13 70 17 100 4 37 8 46 10 27 2 -15 -4 -70 -13 -123z m-3235
58 c11 -31 32 -85 47 -119 25 -60 28 -63 77 -77 28 -9 52 -12 54 -7 1 4 35 1
75 -7 39 -7 98 -19 130 -25 43 -8 57 -15 57 -28 0 -10 3 -25 6 -34 6 -15 4
-15 -13 -5 -16 11 -26 10 -51 -2 -17 -9 -34 -12 -39 -8 -4 4 -39 15 -77 24
-74 18 -139 47 -171 77 -20 18 -20 18 -17 -94 5 -126 -7 -139 -18 -20 -4 45
-23 129 -45 198 -21 66 -38 128 -37 138 0 9 -3 15 -8 12 -10 -6 -22 23 -14 36
10 16 22 0 44 -59z m427 -9 c-2 -16 -4 -5 -4 22 0 28 2 40 4 28 2 -13 2 -35 0
-50z m1826 -79 c-10 -19 -19 -31 -21 -25 -6 17 -22 2 -22 -20 0 -16 -73 -97
-130 -144 -22 -18 -143 -65 -168 -65 -17 0 -22 6 -22 25 0 14 -5 25 -11 25 -8
0 -10 15 -5 48 4 26 7 53 8 60 1 6 4 9 7 6 3 -3 11 14 18 38 l13 43 -4 -51
c-5 -49 -4 -51 20 -46 13 2 22 8 19 12 -3 5 3 6 13 3 32 -8 269 88 287 117 15
24 13 7 -2 -26z m707 -23 c-5 -11 -15 -23 -21 -27 -6 -3 -3 5 6 20 20 30 30
35 15 7z m630 -41 c-12 -16 -24 -30 -26 -30 -7 0 5 20 24 43 24 27 25 20 2
-13z m-6444 -42 c-4 -42 -95 -316 -106 -323 -5 -3 2 25 14 63 41 121 69 217
72 239 2 22 12 43 19 43 2 0 3 -10 1 -22z m5341 -100 c-3 -8 -6 -5 -6 6 -1 11
2 17 5 13 3 -3 4 -12 1 -19z m-610 -40 c-3 -8 -6 -5 -6 6 -1 11 2 17 5 13 3
-3 4 -12 1 -19z m-3902 -227 c14 -6 0 -13 -60 -29 -44 -12 -127 -40 -185 -63
-58 -22 -157 -58 -222 -80 -64 -21 -147 -53 -185 -70 -75 -34 -308 -163 -336
-187 -9 -8 -20 -13 -23 -9 -3 3 4 10 15 17 12 6 19 15 16 21 -17 26 212 185
380 265 109 52 340 134 376 134 27 0 24 -20 -3 -21 -14 -1 -17 -3 -8 -5 9 -3
51 4 95 15 88 21 110 23 140 12z m-972 -21 c-3 -12 -8 -19 -11 -16 -5 6 5 36
12 36 2 0 2 -9 -1 -20z m6108 -36 c115 -44 168 -71 281 -141 73 -45 281 -194
312 -223 4 -5 -18 -41 -50 -82 -32 -40 -60 -75 -61 -77 -2 -2 -5 -2 -8 1 -3 3
11 25 30 49 44 56 45 73 2 31 -57 -55 -53 -58 -291 166 -37 36 -54 47 -45 31
8 -14 50 -57 94 -96 44 -39 100 -91 124 -117 42 -43 44 -47 31 -71 -7 -13 -21
-27 -32 -31 -10 -3 -18 -11 -18 -17 0 -7 -13 -27 -30 -45 -16 -18 -30 -40 -30
-48 0 -8 -10 -14 -23 -14 -29 0 -92 -57 -92 -84 0 -12 -6 -20 -13 -18 -7 1
-35 -9 -62 -23 -56 -29 -73 -32 -44 -9 18 15 18 15 -3 9 -13 -4 -23 -2 -23 4
0 5 17 13 38 17 20 4 46 13 57 20 25 18 20 17 -43 -1 -28 -9 -54 -15 -59 -14
-21 4 -22 -4 -8 -37 l15 -36 -25 4 c-14 3 -28 1 -31 -3 -9 -16 -24 -10 -33 14
-9 21 -6 -136 4 -264 3 -38 0 -62 -9 -75 -13 -17 -15 -16 -20 16 -3 19 -10 84
-16 145 -18 177 -35 232 -129 424 -64 130 -65 159 -13 233 78 113 98 137 137
162 59 40 83 43 130 17 34 -19 29 -11 -40 54 -71 68 -78 78 -60 84 30 12 25
33 -15 58 -48 31 -37 29 71 -13z m-850 -2 c-14 -9 -34 -25 -45 -35 -21 -17
-21 -17 -1 -11 18 5 18 4 3 -6 -31 -20 -203 -78 -319 -108 -159 -41 -160 -41
-153 -31 3 5 -1 9 -8 9 -18 1 33 29 54 30 24 0 365 115 429 144 64 29 72 31
40 8z m-3051 -36 c0 -2 -8 -10 -17 -17 -16 -13 -17 -12 -4 4 13 16 21 21 21
13z m917 -12 c-3 -3 -12 -4 -19 -1 -8 3 -5 6 6 6 11 1 17 -2 13 -5z m97 -20
c40 -5 66 -14 66 -23 0 -10 -117 16 -140 30 -11 8 -7 8 15 4 17 -4 43 -9 59
-11z m-114 -4 c8 -5 11 -10 5 -10 -5 0 -17 5 -25 10 -8 5 -10 10 -5 10 6 0 17
-5 25 -10z m130 -38 c41 -10 122 -25 180 -32 110 -14 150 -24 150 -38 0 -20
-333 45 -405 79 -45 21 -33 20 75 -9z m-2531 -49 c87 -86 111 -144 111 -269
l0 -85 -42 -19 c-52 -22 -37 -26 22 -5 23 8 44 15 45 15 2 0 -3 -13 -11 -28
-10 -22 -29 -34 -81 -52 -158 -55 -389 -177 -521 -274 -35 -26 -67 -44 -73
-41 -5 4 -8 2 -7 -3 3 -7 -49 -57 -141 -136 l-24 -21 11 20 c40 78 430 382
457 357 4 -4 5 -1 1 6 -4 7 0 15 11 19 27 10 32 22 22 57 -20 68 1 291 37 400
18 52 77 126 101 126 8 0 45 -30 82 -67z m1416 7 c-17 -33 -19 -44 -6 -35 11
6 25 -30 17 -44 -6 -9 49 8 72 22 23 15 12 -2 -51 -85 -110 -143 -206 -337
-266 -533 -57 -189 -100 -360 -116 -455 -17 -106 -36 -379 -29 -425 l4 -30
-12 30 c-7 20 -12 120 -12 297 -1 264 -8 323 -22 178 -4 -41 -10 -97 -14 -125
-7 -45 -8 -46 -10 -15 l-2 35 -9 -30 c-7 -26 -8 -25 -4 10 3 22 5 49 6 60 1
16 2 15 8 -5 5 -16 7 3 7 50 1 82 55 314 121 509 55 165 153 359 271 539 55
84 75 106 47 52z m3418 -29 c3 -33 10 -67 16 -78 11 -17 12 -17 7 2 -22 90 -9
78 27 -25 24 -69 52 -142 61 -163 15 -34 15 -38 1 -43 -18 -7 -44 21 -45 48 0
9 -5 20 -11 24 -8 5 -9 -9 -4 -47 10 -77 -3 -56 -20 32 -31 157 -46 224 -53
227 -10 3 -2 82 8 82 4 0 10 -27 13 -59z m-3563 15 c0 -2 -8 -10 -17 -17 -16
-13 -17 -12 -4 4 13 16 21 21 21 13z m6659 -51 c0 -5 -6 1 -14 15 -8 14 -14
30 -14 35 0 6 6 -1 14 -15 8 -14 14 -29 14 -35z m-3260 -7 c-14 -27 -59 -82
-59 -73 0 8 62 95 67 95 2 0 -2 -10 -8 -22z m50 -5 c-41 -108 -168 -303 -247
-377 -26 -24 -83 -72 -127 -106 -44 -34 -82 -64 -84 -66 -6 -5 -27 -150 -46
-307 -23 -192 -87 -612 -107 -706 -6 -29 -18 -55 -25 -58 -7 -3 -11 -9 -8 -13
2 -4 -4 -15 -14 -24 -17 -16 -17 -9 5 106 55 283 139 915 132 988 -2 27 -12
40 -50 66 -56 38 -57 36 66 109 109 64 188 129 297 243 71 74 83 85 55 45 -20
-28 -61 -75 -90 -104 -30 -29 -52 -59 -49 -66 3 -7 1 -13 -5 -13 -5 0 -12 -7
-16 -15 -10 -28 30 2 75 55 23 27 45 48 49 47 12 -3 72 82 65 93 -3 5 0 12 6
16 8 5 10 2 5 -7 -4 -8 5 2 21 21 26 32 93 100 100 100 1 0 -2 -12 -8 -27z
m-5477 -5 c-7 -7 -12 -8 -12 -2 0 14 12 26 19 19 2 -3 -1 -11 -7 -17z m2822
-58 c-8 -95 5 -106 31 -24 9 30 19 53 22 50 3 -3 0 -20 -6 -38 -9 -25 -51
-202 -51 -214 0 -2 6 -9 13 -16 45 -49 45 -56 -1 -18 -30 25 -59 49 -66 54
-11 7 -6 38 23 148 20 76 37 138 39 138 2 0 0 -36 -4 -80z m-437 29 c62 -23
143 -132 143 -192 0 -11 3 -17 6 -14 4 4 14 -8 23 -26 18 -34 15 -57 -27 -210
-8 -31 -12 -60 -9 -64 4 -3 7 -1 7 5 0 19 30 14 31 -5 0 -12 5 -8 15 12 l15
30 -6 -35 c-3 -19 -18 -96 -32 -170 -24 -121 -27 -157 -27 -340 1 -171 5 -224
24 -320 37 -188 123 -415 210 -555 70 -112 92 -138 102 -123 6 9 7 6 3 -9 -5
-17 11 -39 81 -112 47 -50 110 -110 138 -133 38 -31 27 -16 -44 58 -108 114
-154 167 -158 186 -5 20 -34 48 -43 42 -5 -3 -9 0 -9 6 0 6 -18 39 -41 73 -56
85 -101 176 -93 189 4 6 3 8 -3 5 -10 -6 -21 26 -26 75 -1 9 -3 15 -6 12 -7
-6 -32 57 -26 66 3 4 -8 68 -24 141 -28 127 -29 141 -22 274 4 77 9 115 10 85
1 -30 6 -64 11 -75 6 -13 10 24 11 105 2 85 4 101 6 50 5 -144 34 -362 59
-447 58 -201 189 -465 298 -601 182 -229 520 -481 746 -558 37 -12 48 -20 34
-22 -11 -1 -193 -1 -405 1 -211 3 -422 4 -469 4 -215 -1 -204 -3 -269 53 -32
28 -85 80 -116 115 -31 36 -62 62 -68 58 -5 -3 5 15 24 41 60 85 60 83 57 213
l-1 33 -18 -22 c-11 -11 -19 -16 -19 -10 0 7 -7 12 -15 12 -11 0 -15 -12 -15
-47 0 -58 -6 -53 -12 10 -7 72 -13 65 -14 -16 0 -67 -20 -148 -45 -186 -9 -13
-9 -12 -4 4 41 128 41 235 -1 339 -24 61 -82 153 -108 175 -9 8 -16 19 -16 26
0 24 -99 65 -154 64 l-51 0 50 -18 c73 -26 147 -66 170 -91 12 -13 -8 -5 -53
23 -92 57 -144 71 -230 64 -66 -5 -67 -5 -33 10 21 9 30 17 23 22 -10 6 -21
49 -37 144 -8 52 -25 47 -23 -7 1 -25 5 -43 9 -40 8 4 19 -46 19 -84 0 -36 -9
-22 -19 29 -9 44 -9 44 -11 9 l-2 -35 -8 29 c-13 44 5 588 26 766 2 19 6 91 8
158 3 68 7 126 10 130 3 3 6 -1 6 -9 1 -8 7 0 15 16 l14 30 -2 -44 c-1 -28 3
-46 11 -49 10 -3 17 20 10 32 -2 2 8 13 22 24 15 12 27 16 31 10 4 -6 15 0 28
13 27 29 27 20 0 -25 -29 -49 -15 -45 16 4 14 23 42 59 62 80 19 22 32 40 27
40 -12 0 48 60 71 71 11 6 2 -6 -20 -25 -51 -45 -36 -47 19 -2 41 33 117 76
135 76 5 0 22 5 36 10 20 8 24 14 17 23 -6 7 -16 35 -23 62 -15 64 -110 195
-121 168 -5 -14 -7 -15 -8 -3 -2 8 -2 19 -1 23 1 4 -3 16 -8 25 -12 23 19 62
51 63 16 1 13 4 -12 9 l-35 7 37 2 c20 0 49 -4 65 -10z m753 -166 c143 -143
229 -219 212 -186 -7 12 -12 24 -12 28 0 8 49 -18 105 -56 25 -17 48 -29 51
-26 3 2 -19 19 -48 37 -124 77 -158 101 -247 176 -52 43 -97 78 -100 78 -3 -1
-16 19 -29 45 l-23 46 30 -37 c56 -67 218 -197 332 -268 63 -39 118 -75 123
-80 5 -5 -9 -25 -33 -48 -50 -47 -50 -48 -16 -277 32 -212 143 -855 156 -897
5 -18 7 -33 5 -35 -9 -9 -34 11 -39 30 -2 12 -12 49 -21 82 -16 63 -34 170
-66 401 -19 137 -70 446 -91 551 -9 48 -16 57 -93 122 -108 90 -216 197 -216
212 0 7 -6 20 -13 28 -8 9 -42 70 -76 136 -34 66 -51 107 -39 92 13 -16 79
-85 148 -154z m-916 77 c-18 -38 -34 -74 -34 -80 0 -29 -103 -203 -171 -290
-15 -19 -35 -54 -45 -78 -31 -80 -24 -36 10 59 69 191 140 323 220 406 28 29
52 53 53 53 1 0 -14 -31 -33 -70z m2301 44 c-67 -50 -62 -46 -40 -39 11 3 16
3 12 -2 -11 -11 -68 -13 -61 -2 3 5 10 9 15 9 6 0 27 11 47 25 40 27 60 34 27
9z m-784 -45 c24 -16 61 -42 82 -56 66 -45 33 -35 -56 17 -47 27 -90 50 -96
50 -6 0 -11 5 -11 10 0 19 37 10 81 -21z m670 -22 c-6 -8 -8 -16 -5 -19 3 -3
0 -9 -7 -14 -8 -4 -10 -3 -5 4 4 7 2 12 -5 12 -7 0 -4 7 7 15 24 18 30 19 15
2z m-4505 -78 c-14 -17 -26 -36 -26 -42 0 -7 -10 -23 -23 -37 -12 -14 -18 -20
-13 -13 5 7 6 13 3 13 -3 0 -26 -31 -52 -68 -67 -100 -106 -256 -120 -477 -14
-226 41 -546 129 -759 53 -127 58 -151 11 -52 -27 58 -34 66 -39 48 -9 -27 46
-159 126 -302 19 -33 19 -34 1 -12 -61 74 -188 378 -228 545 -58 244 -60 547
-4 822 24 118 44 167 90 220 31 35 157 145 167 145 2 0 -8 -14 -22 -31z m6697
-117 c-83 -112 -223 -289 -300 -379 -139 -161 -165 -189 -157 -173 10 19 71
93 149 179 33 37 96 114 140 172 114 149 185 239 190 239 3 0 -7 -17 -22 -38z
m-2430 -95 c29 -14 42 -15 58 -6 18 9 20 8 15 -8 -3 -10 -10 -48 -16 -85 -5
-37 -14 -77 -19 -90 -8 -19 -10 -15 -10 25 -1 68 -20 135 -40 142 -9 2 -22 14
-29 26 -8 12 -10 19 -5 17 4 -2 25 -12 46 -21z m231 -29 c-25 -23 -56 -49 -68
-56 -11 -7 8 14 43 47 35 34 66 59 68 57 3 -2 -17 -24 -43 -48z m-1314 -149
c63 -113 130 -326 196 -624 14 -66 33 -132 40 -147 17 -33 18 -41 2 -32 -7 4
-8 3 -4 -5 4 -6 11 -9 16 -6 4 3 16 -8 26 -23 15 -24 15 -25 1 -13 -9 7 -17 9
-17 3 0 -14 30 -37 49 -37 9 0 16 -7 16 -17 0 -9 9 -27 19 -40 10 -12 -15 12
-56 55 l-75 77 -42 163 c-23 89 -53 207 -67 262 -62 240 -102 342 -190 481
l-36 59 43 -45 c23 -25 59 -75 79 -111z m520 -77 c45 -255 132 -861 129 -902
-2 -29 -18 57 -34 185 -9 72 -23 164 -31 205 -8 41 -23 134 -34 205 -21 139
-29 190 -56 325 -9 47 -19 103 -23 125 -8 40 -8 40 -16 11 -4 -16 -3 -50 3
-80 7 -28 16 -91 22 -141 6 -49 17 -130 25 -180 8 -49 17 -119 21 -155 3 -36
8 -68 10 -72 2 -3 8 -57 14 -120 5 -62 11 -129 14 -148 6 -33 5 -33 -8 6 -8
23 -22 91 -31 150 -9 60 -27 165 -40 234 -13 69 -36 201 -50 293 -26 177 -26
185 16 231 11 11 19 25 20 30 2 33 22 -50 49 -202z m1293 138 c17 -27 17 -40
7 -128 -22 -189 -51 -389 -75 -512 -39 -203 -86 -425 -92 -430 -3 -3 -2 11 1
30 23 128 57 379 71 510 9 85 18 162 20 170 7 24 35 281 37 338 0 28 4 52 7
52 4 0 15 -14 24 -30z m-82 -126 c-11 -76 -27 -200 -36 -274 -21 -172 -53
-371 -61 -379 -3 -3 -4 8 0 24 3 17 10 77 16 135 12 117 77 578 86 616 15 60
13 6 -5 -122z m509 40 c-59 -131 -124 -390 -164 -659 -9 -60 -22 -105 -35
-123 -38 -55 -218 -217 -274 -249 -31 -18 -57 -29 -57 -25 0 4 20 18 45 31 49
26 195 150 196 166 0 6 8 19 18 30 54 61 63 86 92 253 32 191 87 412 121 492
28 67 80 162 85 156 2 -2 -10 -35 -27 -72z m2988 56 c108 -18 216 -58 293
-108 75 -50 180 -150 223 -213 30 -44 72 -175 91 -286 18 -103 21 -364 5 -453
-12 -67 -38 -140 -51 -140 -4 0 -31 -24 -61 -53 -61 -60 -186 -156 -237 -182
l-34 -17 33 58 c18 33 40 68 50 79 10 11 41 81 69 155 94 248 134 335 142 314
4 -11 8 22 9 76 2 95 2 95 16 55 14 -40 14 -39 9 34 -7 91 -38 218 -70 280
-25 51 -111 171 -122 171 -3 0 1 -8 9 -17 78 -89 77 -237 -3 -444 -56 -145
-211 -337 -337 -417 -107 -68 -163 -92 -229 -101 -50 -7 -69 -4 -156 25 -123
41 -177 76 -260 164 -88 92 -101 134 -101 305 0 147 22 255 73 360 33 67 34
83 2 33 -17 -27 -21 -29 -22 -13 0 11 -3 14 -6 8 -2 -7 -10 -13 -17 -13 -13 0
-102 -90 -185 -185 -42 -49 -42 -48 6 14 71 95 226 248 323 320 136 101 254
154 400 180 l55 10 -75 -3 c-46 -2 -65 -1 -50 4 37 12 136 11 208 0z m-2033
-60 c-11 -5 -31 -8 -45 -8 -23 0 -22 1 5 8 42 11 65 11 40 0z m-145 -66 c0 -8
-4 -12 -10 -9 -5 3 -10 10 -10 16 0 5 5 9 10 9 6 0 10 -7 10 -16z m-6120 -157
c0 -2 -10 -12 -22 -23 l-23 -19 19 23 c18 21 26 27 26 19z m5576 -106 c72 -36
112 -75 92 -87 -16 -10 -118 -12 -112 -2 3 5 0 8 -5 8 -6 0 -28 26 -48 58 -21
31 -45 63 -53 69 -22 19 52 -9 126 -46z m-4122 -3 c-21 -18 -43 -39 -51 -46
-26 -26 -80 -35 -263 -42 -102 -4 -196 -13 -210 -19 -24 -11 -24 -11 5 -6 17
3 104 8 195 10 91 3 178 7 194 10 24 4 26 3 17 -9 -7 -8 -14 -27 -17 -42 -3
-16 -10 -34 -15 -40 -7 -8 -6 -15 2 -20 8 -4 9 -3 5 4 -4 7 -2 12 3 12 6 0 11
-3 12 -7 5 -53 12 -60 71 -68 l47 -7 4 53 3 54 0 -55 -1 -55 -40 1 c-22 1
-105 5 -185 9 -97 5 -170 3 -220 -4 -69 -11 -86 -13 -145 -20 -20 -2 -20 -3 0
-10 15 -6 1 -12 -55 -26 -149 -37 -318 -119 -412 -202 -35 -30 -110 -101 -168
-156 -58 -56 -99 -95 -92 -87 6 8 12 20 12 28 0 24 -32 -26 -84 -130 -26 -54
-46 -103 -44 -110 3 -7 18 17 35 53 16 35 40 75 51 89 13 15 5 -7 -19 -55 -23
-44 -45 -84 -50 -89 -15 -16 -10 -95 7 -129 9 -18 32 -53 50 -79 19 -27 30
-48 25 -48 -6 0 -16 9 -24 20 -8 11 -16 17 -19 15 -3 -3 -30 22 -61 55 -50 56
-55 65 -51 98 44 340 183 596 428 786 238 185 407 236 785 236 169 0 192 -2
187 -15 -8 -23 20 -5 74 47 25 24 46 40 48 36 2 -4 -13 -22 -34 -40z m1478 35
c-6 -3 -10 -9 -6 -14 3 -5 1 -9 -5 -9 -5 0 -12 -17 -16 -37 -3 -21 -14 -49
-24 -62 -15 -19 -21 -22 -37 -13 -10 6 -14 12 -9 13 6 0 -1 4 -15 8 -25 7 -24
7 25 60 47 51 84 75 95 63 3 -2 -1 -7 -8 -9z m2599 -128 c27 -54 -1 -22 -35
40 -21 38 -23 44 -6 25 11 -14 30 -43 41 -65z m2070 14 l-10 -24 0 26 c-1 14
2 29 6 33 12 12 14 -9 4 -35z m1213 -124 c0 -49 -4 -121 -11 -160 -13 -78 -96
-295 -130 -340 l-22 -30 12 35 c7 19 15 40 19 45 12 19 57 125 53 125 -3 0
-14 -17 -25 -37 -19 -36 -20 -37 -14 -8 3 17 7 36 10 43 2 7 -5 12 -17 12 -19
0 -20 4 -15 33 3 18 12 53 20 78 11 34 14 38 16 19 0 -14 12 17 25 69 14 52
24 106 23 120 -1 14 -1 43 0 65 2 33 4 37 17 26 13 -11 15 -8 16 16 l0 29 11
-25 c5 -14 11 -65 12 -115z m-1579 65 c-61 -157 -66 -247 -19 -409 69 -237
189 -407 403 -569 173 -131 440 -216 615 -197 62 7 167 28 199 41 13 5 10 -2
-10 -24 -35 -38 -65 -50 -178 -69 -98 -16 -191 -12 -288 13 -59 15 -167 63
-196 87 -21 17 -72 41 -91 42 -8 1 -14 6 -12 13 1 7 -9 17 -22 22 -13 5 -27
14 -32 21 -5 8 -3 10 7 4 8 -5 5 1 -5 13 -21 24 -46 31 -26 7 27 -32 -9 -12
-73 41 -37 30 -67 53 -67 49 0 -4 24 -29 53 -57 36 -35 43 -45 22 -33 -16 10
-44 34 -60 53 l-31 35 -13 -43 c-22 -73 -114 -230 -128 -216 -3 2 9 25 26 50
46 67 73 136 68 172 -13 80 -80 175 -133 188 -16 4 -45 21 -66 38 -32 25 -45
29 -72 25 -46 -7 -143 -57 -208 -105 -54 -40 -107 -65 -94 -43 4 6 0 11 -8 11
-21 0 -20 18 1 44 13 15 10 14 -10 -3 -15 -14 -27 -22 -27 -18 0 3 -13 1 -30
-4 -35 -13 -38 -34 -9 -65 12 -12 19 -28 17 -36 -3 -7 -17 9 -32 35 -16 26
-27 49 -25 51 2 1 29 17 59 34 64 36 244 194 313 275 65 76 72 100 52 176 -19
73 -23 219 -7 247 9 15 11 6 8 -46 -2 -36 -2 -48 1 -27 6 54 23 46 23 -11 0
-57 26 -152 42 -152 6 0 8 9 4 23 -3 12 -6 42 -6 67 0 33 -3 41 -10 30 -7 -10
-10 13 -10 75 0 98 6 115 37 118 14 1 28 16 42 44 30 62 33 53 6 -17z m352 8
c-3 -8 -6 -5 -6 6 -1 11 2 17 5 13 3 -3 4 -12 1 -19z m-5034 -75 c-9 -24 -10
-20 -10 32 -1 54 0 57 9 28 7 -20 7 -41 1 -60z m2968 -25 c10 -21 16 -44 13
-53 -7 -17 -20 -20 -29 -5 -3 6 1 10 9 10 13 0 12 6 -3 43 -11 23 -22 53 -25
67 l-6 25 11 -25 c7 -14 20 -42 30 -62z m2048 -14 c-6 -48 -9 -123 -7 -166 4
-65 11 -90 42 -152 21 -40 63 -104 94 -142 l57 -68 1 -73 c1 -40 -2 -73 -7
-73 -10 0 -126 178 -163 250 -39 76 -37 75 -113 89 -37 7 -75 15 -84 17 -22 6
-30 -17 -19 -53 4 -15 9 -22 9 -15 1 6 5 12 10 12 13 0 12 -80 -1 -103 -7 -13
-4 -30 11 -60 33 -66 17 -54 -23 17 -44 81 -96 233 -103 301 -4 37 0 62 16 99
12 27 24 47 26 44 3 -3 -2 -21 -10 -41 -16 -38 -18 -101 -5 -152 7 -29 8 -29
9 -4 0 14 4 29 8 33 4 4 8 15 8 23 0 9 7 19 15 21 13 5 13 3 1 -11 -34 -42 26
-9 112 62 70 58 107 114 107 167 0 33 11 77 17 71 2 -3 -1 -44 -8 -93z m-199
12 c-30 -49 -36 -46 -8 3 12 22 24 38 26 36 3 -2 -6 -20 -18 -39z m-1549 -102
c-22 -66 -80 -211 -129 -324 -49 -113 -92 -216 -97 -230 -10 -36 -134 -310
-155 -345 -10 -16 -32 -64 -48 -105 -17 -41 -56 -128 -87 -192 -55 -115 -58
-118 -88 -116 l-32 1 33 4 c29 4 32 7 32 39 0 19 16 73 35 121 37 92 45 129
23 102 -7 -8 -31 -28 -53 -43 l-40 -28 30 29 c17 16 42 44 55 63 19 27 10 22
-41 -25 -89 -82 -259 -196 -349 -234 -74 -32 -160 -49 -213 -43 l-29 4 37 19
c20 11 55 27 78 36 85 34 299 170 407 259 109 88 173 163 251 292 41 68 94
156 118 195 55 90 128 256 198 451 29 83 51 139 48 124 -17 -92 -19 -94 32 42
9 25 18 40 20 34 2 -7 -14 -65 -36 -130z m-336 45 c5 -5 -5 -4 -23 2 -17 6
-32 13 -32 16 0 7 43 -8 55 -18z m3238 -4 c-3 -9 -8 -14 -10 -11 -3 3 -2 9 2
15 9 16 15 13 8 -4z m-5687 -8 c3 -3 -11 -24 -31 -46 -37 -41 -39 -56 -3 -24
17 15 18 15 13 0 -11 -26 -158 -76 -170 -57 -3 5 -15 10 -26 10 -27 0 -24 11
14 47 52 51 179 94 203 70z m2459 -34 c40 -17 115 -79 115 -96 0 -12 -27 -5
-113 26 -63 23 -127 68 -127 90 0 12 76 0 125 -20z m-919 -24 c-15 -35 -49
-72 -76 -81 -12 -4 -15 1 -14 20 0 17 15 37 49 64 26 21 50 37 52 35 2 -2 -3
-19 -11 -38z m-708 -6 c18 -13 42 -43 53 -65 l21 -41 -56 48 c-52 44 -76 73
-76 90 0 8 16 -1 58 -32z m-2011 -5 c-3 -8 -6 -5 -6 6 -1 11 2 17 5 13 3 -3 4
-12 1 -19z m3544 -5 c13 -16 12 -17 -3 -4 -10 7 -18 15 -18 17 0 8 8 3 21 -13z
m-1358 -84 c3 -12 0 -19 -9 -19 -8 0 -18 -10 -23 -22 -7 -19 -11 -13 -29 40
l-21 63 39 -22 c21 -12 41 -30 43 -40z m391 53 c7 -12 -12 -80 -25 -88 -7 -4
-9 1 -5 14 6 19 4 20 -24 12 -19 -5 -30 -5 -30 1 0 6 -4 7 -10 4 -6 -3 -7 1
-4 10 4 9 23 24 43 35 41 22 48 23 55 12z m1051 -12 c3 -5 2 -10 -4 -10 -5 0
-13 5 -16 10 -3 6 -2 10 4 10 5 0 13 -4 16 -10z m-94 -27 c13 -16 12 -17 -3
-4 -10 7 -18 15 -18 17 0 8 8 3 21 -13z m136 11 c-3 -3 -12 -4 -19 -1 -8 3 -5
6 6 6 11 1 17 -2 13 -5z m-824 -46 c-3 -24 -9 -61 -14 -83 -6 -30 -7 -24 -3
25 5 64 12 100 19 100 2 0 1 -19 -2 -42z m-408 20 c4 -4 2 -16 -5 -27 -9 -18
-20 -21 -76 -21 -74 0 -104 12 -104 40 0 19 6 20 90 17 49 -2 92 -6 95 -9z
m1133 -49 c-3 -8 -7 -3 -11 10 -4 17 -3 21 5 13 5 -5 8 -16 6 -23z m-2839 -24
c0 -5 -4 -3 -9 5 -5 8 -9 22 -9 30 0 16 17 -16 18 -35z m599 20 c-3 -3 -9 2
-12 12 -6 14 -5 15 5 6 7 -7 10 -15 7 -18z m-178 -82 c0 -32 -5 -28 -14 10 -4
19 -3 26 4 22 5 -3 10 -18 10 -32z m4396 2 c-8 -8 -17 -15 -19 -15 -3 0 -7 7
-11 15 -4 11 2 15 20 15 23 0 24 -2 10 -15z m-3945 -22 c13 -16 12 -17 -3 -4
-17 13 -22 21 -14 21 2 0 10 -8 17 -17z m-287 -22 c-17 -34 -39 -54 -63 -58
-9 -1 -43 -14 -74 -28 -66 -29 -79 -31 -51 -10 33 25 -4 17 -43 -10 -20 -13
-39 -23 -41 -20 -2 2 13 24 33 48 57 68 129 102 222 106 l31 1 -14 -29z m2195
-18 c40 -7 111 -73 111 -102 0 -18 -6 -17 -87 15 -49 19 -97 34 -107 34 -29 0
-8 -15 42 -29 24 -7 42 -15 39 -17 -11 -12 -90 21 -105 43 -10 16 -17 20 -22
13 -5 -8 -9 -6 -13 5 -4 9 -3 13 3 10 21 -13 9 8 -15 27 -40 32 -29 37 48 21
39 -8 87 -17 106 -20z m-1642 -85 c-2 -13 -4 -5 -4 17 -1 22 1 32 4 23 2 -10
2 -28 0 -40z m616 20 c-13 -12 -26 -19 -29 -15 -4 4 1 14 12 22 29 22 41 18
17 -7z m-1233 3 c-8 -5 -26 -12 -40 -15 l-25 -7 25 15 c14 9 32 15 40 15 13 0
13 -1 0 -8z m-80 -31 c-8 -5 -19 -10 -25 -10 -5 0 -3 5 5 10 8 5 20 10 25 10
6 0 3 -5 -5 -10z m2195 -50 l46 -60 -25 -55 c-28 -59 -36 -65 -57 -37 -11 14
-11 15 1 5 23 -21 28 -16 39 37 15 71 15 72 -24 117 -33 39 -41 53 -31 53 3 0
26 -27 51 -60z m3425 57 c0 -2 -15 -16 -32 -33 l-33 -29 29 33 c28 30 36 37
36 29z m-1012 -52 c-3 -3 -9 2 -12 12 -6 14 -5 15 5 6 7 -7 10 -15 7 -18z
m-2461 -2 c-4 -4 6 -12 23 -19 30 -13 40 -37 20 -49 -5 -3 -10 -1 -10 4 0 6
-11 10 -24 9 -14 -1 -22 -6 -20 -10 3 -5 10 -5 16 -2 7 4 8 2 4 -4 -4 -7 -14
-12 -22 -12 -8 0 -12 -5 -9 -10 4 -6 -9 -2 -28 7 -38 20 -38 43 -1 43 13 0 25
5 25 10 1 6 3 15 4 20 1 6 3 12 4 15 0 3 6 5 13 5 6 0 8 -3 5 -7z m3689 -138
c-37 -136 -100 -307 -162 -434 -30 -62 -57 -111 -60 -109 -5 6 35 120 50 138
10 13 11 21 7 55 -1 11 -91 -126 -91 -139 0 -5 -3 -7 -6 -4 -3 3 9 35 27 69
31 62 79 191 79 213 0 6 -20 -13 -45 -41 -51 -58 -112 -105 -200 -153 -71 -40
-70 -35 5 15 30 21 66 49 80 64 14 14 48 44 75 66 86 69 136 139 190 266 19
45 42 93 52 107 l18 27 3 -25 c1 -14 -9 -65 -22 -115z m-4171 99 c-61 -52
-199 -137 -273 -169 -95 -42 -228 -80 -213 -61 11 13 51 32 206 96 55 23 106
47 114 54 15 12 183 105 191 106 3 0 -8 -12 -25 -26z m3305 6 c12 -8 11 -10
-7 -10 -12 0 -25 5 -28 10 -8 13 15 13 35 0z m-419 -144 c37 -33 43 -41 19
-25 -44 29 -136 122 -150 152 -7 12 9 0 33 -28 25 -27 69 -72 98 -99z m-3696
46 c71 -36 114 -56 242 -113 51 -22 51 -41 0 -25 -127 40 -307 134 -377 196
l-35 32 45 -25 c25 -14 81 -43 125 -65z m3892 36 c-2 -13 -4 -5 -4 17 -1 22 1
32 4 23 2 -10 2 -28 0 -40z m-7898 12 c11 -24 11 -24 -3 -6 -9 11 -16 24 -16
30 0 12 5 7 19 -24z m5177 13 c50 -17 98 -43 91 -49 -2 -3 -37 11 -78 31 -83
38 -86 43 -13 18z m-2957 -18 c90 -31 187 -131 211 -216 12 -40 11 -133 0
-169 -6 -20 -8 -14 -9 27 -1 28 -5 55 -11 58 -5 3 -10 -2 -10 -12 0 -11 -3
-14 -8 -7 -4 6 -14 13 -23 16 -13 5 -18 -2 -23 -35 -20 -129 -84 -238 -170
-292 -42 -25 -61 -30 -125 -32 -53 -2 -70 0 -56 6 17 8 17 10 3 10 -20 1 -131
41 -126 46 2 2 28 -5 58 -15 145 -50 271 5 342 149 33 66 31 157 -5 231 -14
30 -25 56 -23 57 2 2 17 -10 35 -26 17 -16 31 -25 31 -21 0 11 -59 70 -68 67
-4 -1 -29 14 -57 33 -56 38 -130 50 -200 31 -36 -9 -38 -9 -21 4 11 8 41 15
67 15 26 0 51 5 54 10 11 18 -97 11 -140 -9 -61 -28 -128 -93 -159 -155 -22
-43 -29 -74 -33 -140 -5 -75 -3 -89 20 -137 34 -72 42 -80 117 -128 70 -44 74
-54 8 -20 -170 87 -221 318 -107 488 44 65 129 135 198 162 57 22 173 24 230
4z m1082 -37 c8 -15 8 -18 0 -14 -6 4 -16 16 -22 28 -8 15 -8 18 0 14 6 -4 16
-16 22 -28z m139 12 c-8 -5 -19 -10 -25 -10 -5 0 -3 5 5 10 8 5 20 10 25 10 6
0 3 -5 -5 -10z m-3400 -49 c-1 -10 -6 -7 -15 9 -19 33 -18 50 0 26 8 -11 15
-27 15 -35z m3514 -8 c-15 -64 -151 -147 -269 -163 -32 -5 -61 -8 -63 -6 -1 2
9 17 23 34 14 16 25 35 25 41 0 36 177 115 268 120 20 1 22 -2 16 -26z m1649
7 c61 -19 70 -25 131 -100 36 -44 66 -82 66 -86 0 -3 -11 1 -25 10 -29 19 -39
20 -29 4 8 -12 7 -12 -72 38 -27 18 -66 39 -85 48 -42 19 -63 36 -72 59 -3 9
-11 17 -16 17 -6 0 -8 -8 -5 -17 3 -10 -1 -7 -9 7 -9 14 -13 28 -11 32 9 14
60 9 127 -12z m-3063 -82 c63 -32 93 -89 93 -177 0 -63 -25 -139 -52 -155 -5
-3 0 11 10 31 23 46 24 57 2 83 -21 24 -30 25 -35 4 -2 -13 -9 -11 -33 11 -29
26 -29 27 -5 20 24 -6 24 -5 6 9 -22 18 -51 22 -41 6 3 -5 -11 -3 -32 4 -21 7
-44 11 -50 9 -7 -3 -13 1 -13 7 0 21 -27 -8 -39 -41 -7 -22 -7 -28 1 -23 7 5
9 0 5 -15 -4 -17 -2 -21 8 -17 8 3 17 0 21 -6 5 -7 2 -8 -6 -3 -8 5 -11 3 -8
-6 2 -7 15 -16 29 -19 15 -4 20 -8 12 -13 -7 -4 -10 -13 -7 -20 7 -19 74 -26
129 -14 27 6 26 5 -8 -11 -30 -15 -48 -17 -90 -11 -90 15 -135 69 -137 164 0
41 -3 47 -12 31 -12 -21 -4 -115 13 -150 10 -20 10 -20 -6 -1 -19 24 -35 79
-35 123 0 69 70 160 144 186 58 20 85 19 136 -6z m5660 -4 c0 -2 -9 0 -20 6
-11 6 -20 13 -20 16 0 2 9 0 20 -6 11 -6 20 -13 20 -16z m-3471 -184 c4 -3 14
-17 23 -31 9 -14 30 -33 48 -41 l31 -15 -36 -21 c-19 -12 -40 -32 -45 -44 -5
-13 -9 -17 -10 -8 0 13 -1 13 -10 0 -5 -8 -10 -22 -10 -30 0 -13 1 -13 10 0
17 26 12 -8 -12 -87 -22 -72 -38 -93 -38 -52 0 12 -10 59 -22 106 -17 64 -28
88 -45 96 l-22 12 34 55 c19 30 42 78 51 105 l17 50 15 -45 c8 -25 18 -47 21
-50z m3738 84 c-3 -3 -12 -4 -19 -1 -8 3 -5 6 6 6 11 1 17 -2 13 -5z m-5467
-66 c0 -19 -2 -20 -10 -8 -13 19 -13 30 0 30 6 0 10 -10 10 -22z m5120 -9 c0
-6 -4 -7 -10 -4 -5 3 -10 11 -10 16 0 6 5 7 10 4 6 -3 10 -11 10 -16z m-7652
-20 c13 -22 13 -23 -2 -5 -15 18 -17 18 -71 2 -53 -17 -93 -46 -47 -34 12 4
25 2 28 -3 3 -5 -11 -9 -32 -9 -33 0 -35 2 -23 17 15 18 109 63 123 59 5 -1
16 -13 24 -27z m3727 -36 c-27 -65 -79 -103 -159 -118 -38 -8 -38 -7 -25 16 7
13 12 27 12 30 -6 19 134 108 170 109 16 0 16 -2 2 -37z m4821 22 c-11 -8 -25
-15 -30 -15 -6 1 0 7 14 15 32 19 40 18 16 0z m-3730 -10 c53 -15 112 -69 152
-136 29 -49 28 -55 -7 -27 -16 12 -68 50 -114 83 -47 33 -87 68 -90 78 -6 21
-4 21 59 2z m-5035 -42 c12 -14 12 -16 0 -9 -9 6 -12 4 -9 -5 3 -8 10 -15 16
-15 7 -1 17 -2 22 -3 6 0 10 -10 10 -22 0 -42 72 -273 140 -447 23 -60 36 -82
46 -78 43 18 48 17 24 -4 l-25 -22 25 6 25 5 -25 -19 c-14 -11 -33 -20 -42
-20 -12 0 -16 -5 -11 -17 4 -12 3 -15 -4 -8 -6 6 -22 44 -36 85 -14 41 -50
142 -81 225 -56 150 -96 292 -96 339 0 31 3 32 21 9z m5079 -73 l35 -30 -38
21 c-37 21 -56 39 -40 39 5 0 24 -14 43 -30z m-2989 -17 c13 -16 12 -17 -3 -4
-17 13 -22 21 -14 21 2 0 10 -8 17 -17z m5690 -16 c-10 -9 -11 -8 -5 6 3 10 9
15 12 12 3 -3 0 -11 -7 -18z m1050 -100 c-10 -9 -11 -8 -5 6 3 10 9 15 12 12
3 -3 0 -11 -7 -18z m150 -183 c-47 -147 -177 -487 -209 -549 -25 -47 -29 -40
-7 12 17 41 19 56 4 30 -6 -9 -14 -15 -19 -12 -4 3 -20 -15 -34 -39 -15 -25
-31 -48 -38 -52 -6 -4 1 15 17 42 55 94 122 240 184 399 90 230 94 237 101
224 5 -6 10 0 14 16 4 15 9 25 11 23 3 -3 -8 -45 -24 -94z m-3671 50 c-60 -8
-128 -8 -123 -1 2 4 37 6 76 6 40 -1 61 -3 47 -5z m-3572 -46 c8 -7 27 -8 55
-2 23 5 195 8 382 6 267 -2 346 -6 370 -17 35 -16 79 -61 89 -90 4 -11 -10 -1
-31 23 l-38 43 -355 5 c-195 3 -625 6 -955 7 -380 1 -605 6 -615 12 -21 14
175 20 675 22 269 1 414 -2 423 -9z m3806 -7 c9 -8 23 -36 31 -64 l15 -51 -39
-65 c-54 -91 -127 -235 -191 -373 -29 -64 -58 -114 -63 -111 -6 3 -7 1 -3 -5
8 -14 -22 -69 -41 -76 -16 -6 -11 7 67 171 29 62 56 110 60 108 5 -3 6 3 4 12
-5 19 116 276 135 287 16 10 14 -7 -4 -30 -8 -10 -15 -23 -15 -29 0 -19 34 40
35 60 1 11 5 33 10 48 5 20 2 40 -11 68 -17 36 -21 39 -49 32 -16 -3 -128 -6
-247 -6 -217 0 -217 0 -233 -23 -8 -13 -15 -34 -16 -46 -1 -20 -3 -18 -15 10
-16 37 -11 54 14 46 14 -5 15 -4 2 5 -17 12 -2180 5 -2192 -7 -3 -4 -23 -38
-43 -77 -33 -65 -36 -67 -30 -31 10 58 49 130 80 144 20 9 274 12 1048 11 562
0 1046 -4 1074 -8 29 -4 56 -4 61 1 4 4 88 9 187 10 295 5 352 3 369 -11z
m2489 14 l268 -7 17 -26 c14 -22 17 -60 20 -255 3 -186 1 -228 -10 -225 -10 4
-14 52 -16 219 -2 185 -5 217 -20 237 l-17 23 -802 -1 c-642 0 -803 2 -804 12
0 10 -2 10 -6 1 -2 -7 -16 -13 -29 -13 -14 0 -22 4 -19 10 3 6 2 10 -4 10 -5
0 -13 -4 -16 -10 -4 -6 -144 -10 -387 -10 -341 0 -383 -2 -400 -17 -14 -13
-18 -13 -19 -2 -1 8 -5 -4 -9 -26 l-7 -40 -2 37 c-1 28 5 41 27 60 l28 23 969
3 c534 2 1091 0 1238 -3z m-7493 -35 c0 -5 -7 -13 -16 -18 -15 -8 -14 -16 4
-88 12 -43 19 -81 16 -83 -2 -2 -4 1 -4 8 0 7 -4 10 -10 6 -5 -3 -16 18 -25
47 -19 64 -19 62 1 104 15 32 34 46 34 24z m747 -207 c3 -84 1 -153 -3 -153
-5 0 -31 23 -59 51 -65 66 -91 76 -213 85 l-102 7 0 -157 0 -156 78 0 79 0 46
47 47 47 0 -173 0 -173 -47 40 c-44 36 -55 40 -125 46 l-78 7 0 -166 0 -165
73 0 c133 1 150 8 242 100 l83 82 1 -171 2 -171 -325 0 c-178 0 -331 -3 -340
-6 -26 -10 -19 18 14 58 l31 37 -2 229 c-1 221 -2 228 -21 229 -31 3 -32 9 -9
41 20 29 21 42 21 258 l0 228 -27 28 -27 28 328 -2 328 -3 5 -152z m433 150
c0 -3 -7 -14 -15 -23 -16 -18 -6 -49 98 -290 25 -58 57 -138 73 -177 15 -40
29 -73 31 -73 1 0 3 112 3 249 l0 249 -25 30 c-14 17 -25 33 -25 36 0 3 63 6
140 6 77 0 140 -3 140 -7 0 -4 -10 -17 -22 -31 l-23 -24 -3 -531 c-1 -293 -4
-533 -7 -534 -3 -2 -30 -3 -60 -3 -46 0 -60 4 -78 24 -12 13 -83 154 -157 314
-74 160 -137 291 -140 292 -3 0 -4 -107 -2 -237 1 -131 2 -254 2 -274 0 -25 9
-46 31 -72 17 -20 31 -39 32 -43 1 -4 -67 -8 -150 -8 -84 -1 -153 0 -153 2 0
2 11 23 25 47 l26 43 -3 486 -3 485 -34 35 -35 36 167 0 c92 0 167 -3 167 -7z
m828 -27 c-1 -25 71 -216 146 -390 12 -28 13 -27 70 95 32 67 69 151 82 187
14 35 33 81 44 103 l20 39 145 0 c80 0 145 -3 145 -6 0 -3 -15 -18 -32 -35
l-33 -29 -3 -490 -3 -489 31 -34 c16 -19 30 -40 30 -46 0 -8 -53 -11 -180 -10
l-180 1 34 44 34 44 5 262 c3 145 8 277 12 293 l5 30 -14 -30 c-22 -44 -192
-427 -200 -450 -6 -16 -13 -7 -35 45 -16 36 -58 132 -95 213 -36 81 -66 152
-66 157 0 5 -4 12 -10 15 -7 4 -10 -87 -10 -266 l0 -271 40 -40 c22 -22 40
-41 40 -42 0 -1 -79 -2 -175 -2 -96 1 -175 3 -175 6 0 3 14 22 30 42 l30 37
-4 253 c-2 139 -5 363 -5 498 l-1 245 -26 28 -26 28 165 -2 165 -3 0 -30z
m1066 22 c-4 -7 -16 -23 -26 -34 -17 -20 -19 -41 -21 -244 l-2 -222 33 -29
c37 -33 39 -39 13 -39 -45 0 -51 -30 -51 -260 l0 -216 30 -34 c16 -19 29 -38
30 -42 0 -5 -76 -8 -170 -8 -93 0 -170 3 -170 8 0 4 16 24 35 46 l35 38 0 212
c0 185 -3 214 -18 232 -9 12 -25 24 -35 27 -15 6 -13 10 15 36 l33 29 0 227 0
227 -35 29 -34 29 172 0 c136 0 172 -3 166 -12z m811 -153 c0 -91 -1 -165 -2
-165 -2 0 -30 26 -64 58 -71 67 -94 81 -131 82 l-28 0 0 -425 0 -425 30 -42
c17 -22 30 -45 30 -50 0 -4 -81 -8 -180 -8 l-181 0 36 46 35 47 0 431 0 432
-52 -6 c-48 -6 -59 -12 -121 -73 -37 -37 -68 -67 -70 -67 -1 0 -2 74 -2 165
l0 165 350 0 350 0 0 -165z m410 135 l-29 -31 18 -52 c10 -29 48 -116 85 -194
l68 -141 33 71 c19 40 55 118 82 174 26 56 48 108 48 117 0 8 -14 31 -31 51
l-31 35 172 0 172 0 -26 -35 c-15 -19 -50 -83 -77 -142 -121 -257 -230 -506
-239 -545 -13 -56 -13 -243 0 -289 6 -20 29 -57 51 -83 l41 -46 -205 2 -205 3
45 52 45 52 -4 173 -4 173 -129 300 c-71 165 -136 311 -144 324 -8 13 -29 32
-46 42 -30 19 -29 19 154 19 l185 0 -29 -30z m1733 -131 l3 -160 -23 15 c-13
9 -34 29 -46 45 -12 17 -42 42 -66 56 -41 24 -51 26 -152 23 -60 -2 -108 -6
-106 -10 1 -5 2 -71 2 -148 l0 -140 73 0 c61 0 78 4 110 25 20 14 37 30 37 35
0 6 5 10 10 10 6 0 10 -60 10 -161 l0 -162 -44 41 c-51 47 -71 54 -144 50
l-53 -3 -2 -163 -2 -162 74 0 c127 0 166 21 273 150 l37 45 0 -131 c1 -72 4
-152 7 -177 l7 -46 -269 5 c-150 3 -302 2 -344 -4 -41 -5 -76 -8 -78 -7 -2 2
13 24 33 50 l35 47 -2 227 -3 226 -27 0 c-27 -1 -27 0 -9 20 38 42 41 60 41
272 l0 209 -31 42 -31 42 339 0 338 0 3 -161z m419 143 c-20 -22 -22 -74 -5
-105 7 -12 26 -65 44 -117 31 -93 32 -94 44 -65 6 17 34 78 62 138 l51 108
-22 29 -22 30 147 0 c80 0 144 -3 142 -7 -2 -5 -54 -111 -116 -238 -61 -126
-118 -241 -125 -255 -10 -20 -11 -33 -1 -66 19 -64 213 -476 255 -541 l21 -33
-79 0 c-54 0 -73 3 -63 10 11 7 7 10 -18 10 -18 0 -31 -3 -28 -8 2 -4 -31 -7
-73 -7 l-78 0 15 25 c9 14 24 36 34 48 17 23 16 26 -19 95 -19 39 -50 109 -68
156 -28 72 -34 81 -40 60 -4 -13 -34 -86 -67 -163 l-59 -138 35 -43 35 -43
-179 2 -179 1 25 30 c13 17 35 44 48 60 27 34 231 437 241 476 7 27 -49 163
-171 414 -38 77 -70 143 -72 148 -2 4 65 7 149 7 147 0 152 -1 136 -18z m1235
-148 l-3 -166 -68 66 c-38 36 -81 70 -95 76 -15 5 -70 10 -122 10 l-94 0 0
-150 0 -150 75 0 c75 0 76 1 120 41 25 23 48 40 50 37 3 -3 4 -78 3 -167 l-3
-161 -55 45 c-55 45 -55 46 -124 43 l-69 -3 2 -148 c2 -140 1 -149 -19 -165
-20 -16 -16 -17 97 -13 109 3 121 5 158 31 22 15 61 50 87 78 26 28 52 53 58
57 7 4 10 -49 10 -164 l0 -171 -107 2 -108 2 105 6 c69 4 3 7 -195 8 -175 0
-316 -3 -339 -9 -21 -6 -40 -8 -43 -5 -3 3 11 24 31 46 l36 40 0 227 c0 193
-2 229 -16 244 -15 16 -15 20 0 41 14 19 16 58 16 249 l0 227 -29 31 -29 31
336 0 337 0 -3 -166z m-7648 -10 c3 -8 2 -12 -4 -9 -6 3 -10 10 -10 16 0 14 7
11 14 -7z m3 -231 c-2 -16 -4 -3 -4 27 0 30 2 43 4 28 2 -16 2 -40 0 -55z
m7658 -24 c-16 -8 -14 -9 10 -5 47 7 63 -8 25 -24 -23 -10 -34 -10 -43 -1 -6
6 -18 11 -26 11 -12 0 -12 -3 -3 -12 8 -8 12 -47 12 -109 l0 -97 43 -10 c48
-12 84 -42 92 -75 4 -13 5 -127 3 -254 -3 -211 -5 -233 -22 -252 -11 -12 -26
-21 -35 -21 -10 0 -7 5 8 13 13 6 26 21 27 32 2 11 1 127 -3 258 l-6 238 -28
14 c-15 8 -44 17 -65 21 l-39 6 -3 128 c-3 115 -1 129 15 139 10 6 27 10 38
10 l20 0 -20 -10z m-7652 -96 c4 -19 2 -33 -3 -33 -6 0 -10 17 -10 37 0 43 5
41 13 -4z m15 -300 c-2 -115 -7 -203 -12 -203 -5 0 -7 -3 -4 -6 3 -3 -9 -29
-28 -57 -38 -58 -40 -64 -20 -112 8 -19 11 -37 7 -40 -5 -2 -11 9 -15 26 -3
17 -10 28 -16 24 -5 -3 -12 6 -16 20 -5 19 -1 34 15 53 11 15 32 46 47 69 25
41 26 48 29 230 1 119 0 158 -4 108 l-7 -80 -1 115 c-1 107 0 113 13 85 11
-24 14 -74 12 -232z m8142 247 c0 -5 -5 -10 -11 -10 -5 0 -7 5 -4 10 3 6 8 10
11 10 2 0 4 -4 4 -10z m-8313 -85 c0 -8 -4 -12 -9 -9 -5 3 -6 10 -3 15 9 13
12 11 12 -6z m5276 -74 c44 -27 94 -81 101 -111 6 -23 6 -23 -5 -5 -39 66
-104 109 -190 127 -60 12 -62 13 -29 18 42 7 80 -2 123 -29z m-287 -42 c-52
-46 -74 -81 -86 -142 l-8 -42 -1 41 c-2 70 38 136 104 172 40 23 37 11 -9 -29z
m247 -28 c44 -29 59 -58 64 -124 5 -54 2 -65 -17 -87 -12 -14 -18 -18 -14 -10
10 19 6 72 -6 84 -7 7 -10 -1 -11 -19 0 -17 -3 -23 -6 -15 -11 26 -29 39 -44
29 -9 -6 -10 -9 -2 -9 7 0 10 -7 7 -15 -15 -38 -137 -23 -150 19 -6 17 -7 18
-16 3 -16 -29 -38 -20 -38 15 0 49 35 112 73 131 45 22 125 21 160 -2z m2846
-87 c-55 -122 -62 -135 -66 -130 -2 2 15 43 38 92 22 49 45 100 50 113 5 13
12 22 14 19 3 -3 -13 -45 -36 -94z m-4185 -182 c30 -44 36 -125 11 -158 -8
-10 -15 -15 -15 -10 0 5 -8 2 -17 -5 -11 -9 -9 -3 5 15 27 35 28 77 2 135 -33
71 -26 81 14 23z m4093 6 c-3 -8 -6 -5 -6 6 -1 11 2 17 5 13 3 -3 4 -12 1 -19z
m-7794 -205 c-7 -2 -19 -2 -25 0 -7 3 -2 5 12 5 14 0 19 -2 13 -5z m7640 0
c-7 -2 -21 -2 -30 0 -10 3 -4 5 12 5 17 0 24 -2 18 -5z m-3663 -99 c41 -9 116
-29 165 -45 136 -43 195 -50 510 -57 202 -5 264 -9 205 -13 -47 -3 -131 -5
-187 -4 -57 1 -100 -2 -97 -6 3 -5 12 -9 20 -9 8 0 14 -6 14 -12 0 -9 4 -8 11
2 9 12 10 11 6 -7 -6 -26 2 -29 22 -10 11 10 13 10 7 0 -4 -7 -2 -14 3 -14 6
-1 16 -2 23 -3 6 0 13 -7 16 -15 3 -9 0 -11 -8 -6 -10 6 -12 4 -7 -8 4 -11 2
-14 -8 -11 -10 4 -12 0 -8 -15 3 -11 12 -22 20 -25 8 -3 11 -1 8 4 -3 5 0 7 8
4 7 -2 14 -11 14 -19 0 -8 -4 -12 -8 -9 -4 2 -7 -4 -6 -15 0 -11 5 -17 9 -15
4 3 8 -2 8 -10 0 -28 24 -18 85 35 75 64 134 104 141 96 4 -3 26 7 50 23 63
44 64 36 1 -15 -58 -47 -79 -57 -56 -27 13 15 12 16 -3 3 -10 -7 -16 -17 -13
-21 6 -10 -194 -166 -232 -182 -48 -19 -507 -15 -648 5 -153 23 -408 73 -505
99 -147 40 -515 192 -505 209 3 3 -9 9 -27 13 -40 8 -33 15 10 9 19 -3 32 -11
32 -20 0 -10 6 -13 16 -9 9 3 23 6 32 7 14 0 13 2 -3 9 -19 8 -19 9 2 9 12 1
25 -3 28 -9 8 -13 500 -13 636 0 130 13 159 19 159 32 0 6 -3 9 -6 6 -3 -4
-21 4 -41 18 -19 13 -51 26 -70 30 -25 5 -31 9 -21 16 16 10 96 3 198 -18z
m-1345 -34 c3 -6 -1 -7 -9 -4 -18 7 -21 14 -7 14 6 0 13 -4 16 -10z m186 -114
c126 -85 350 -206 479 -257 294 -116 706 -227 910 -244 41 -3 91 -9 110 -12
l35 -6 -55 -26 c-104 -51 -435 -220 -493 -252 -57 -32 -59 -32 -110 -19 -29 7
-133 42 -231 77 -499 180 -928 386 -1266 609 -206 136 -264 178 -251 182 7 2
18 -4 26 -14 7 -11 17 -16 21 -11 4 4 2 7 -4 7 -7 0 -12 4 -12 10 0 5 7 7 15
4 8 -4 15 -11 15 -18 0 -6 9 -17 20 -24 23 -14 27 -5 5 12 -11 8 59 11 272 9
159 -1 323 1 366 4 68 5 76 7 60 19 -10 7 -15 14 -12 14 4 0 49 -29 100 -64z
m3939 30 c0 -2 -8 -10 -17 -17 -16 -13 -17 -12 -4 4 13 16 21 21 21 13z
m-1330 -15 c0 -20 -185 -171 -314 -255 -221 -146 -673 -407 -781 -452 -35 -14
-38 -14 -26 0 7 9 36 29 65 44 432 240 838 500 964 617 50 46 92 67 92 46z
m1191 -148 c-150 -144 -304 -281 -348 -310 -21 -14 -30 -13 -95 8 -40 13 -65
25 -55 27 9 2 25 -2 36 -7 11 -6 36 -11 55 -11 28 0 40 7 58 30 12 17 30 30
39 30 10 0 21 5 24 10 4 6 10 8 14 6 11 -7 160 122 366 316 27 26 52 48 55 48
3 0 -64 -66 -149 -147z m-6041 -2 c19 -10 16 -6 -10 17 -41 36 -32 42 13 10
17 -12 27 -17 23 -10 -10 17 9 15 24 -3 9 -11 10 -15 0 -15 -6 0 -1 -13 12
-29 13 -15 28 -26 33 -24 6 2 19 -11 29 -28 10 -18 14 -29 7 -25 -6 4 -11 4
-11 1 0 -13 42 -60 58 -67 15 -6 15 -7 1 -7 -16 -1 -309 277 -309 293 0 5 24
-16 53 -46 28 -30 63 -60 77 -67z m6100 104 c0 -2 -13 -11 -30 -20 -38 -19
-40 -11 -2 9 31 17 32 18 32 11z m189 -105 c1 -41 5 -102 11 -134 5 -32 6 -65
1 -74 -4 -8 -42 -40 -84 -71 -41 -31 -124 -95 -184 -142 -100 -79 -183 -136
-183 -127 0 3 21 20 48 38 67 48 102 81 95 93 -4 6 0 8 10 4 17 -7 41 15 29
28 -4 5 -1 5 6 1 6 -4 12 -2 12 4 0 6 5 8 10 5 6 -3 10 1 10 11 0 14 -2 15
-17 3 -9 -8 -18 -13 -20 -11 -7 6 -73 -51 -68 -59 3 -4 -5 -13 -17 -20 -13 -7
-40 -27 -61 -45 -20 -19 -42 -34 -48 -34 -6 0 -9 -7 -6 -14 6 -14 -28 -34 -39
-23 -2 2 74 72 170 155 161 141 207 186 279 276 26 32 27 39 28 142 0 70 3
102 9 89 5 -11 9 -54 9 -95z m-5868 73 c13 -16 12 -17 -3 -4 -10 7 -18 15 -18
17 0 8 8 3 21 -13z m6229 13 c0 -2 -12 -12 -27 -21 l-28 -18 19 21 c17 20 36
29 36 18z m-46 -107 l-99 -100 -3 57 c-3 53 1 74 13 62 3 -3 6 -22 7 -42 l1
-37 73 72 c40 40 71 75 69 79 -2 3 6 7 18 7 15 2 -6 -25 -79 -98z m-6143 64
c13 -16 12 -17 -3 -4 -17 13 -22 21 -14 21 2 0 10 -8 17 -17z m6113 -18 c-9
-14 -21 -25 -27 -25 -6 0 -7 -3 -4 -6 4 -4 18 1 32 10 14 9 25 12 25 6 0 -5
-12 -17 -26 -26 -22 -15 -27 -15 -34 -3 -6 9 -1 22 17 41 33 35 38 35 17 3z
m-5958 -55 c4 0 34 -17 68 -39 72 -45 277 -143 284 -136 3 3 1 5 -4 5 -5 0
-20 10 -34 21 l-25 21 30 -17 c17 -10 39 -25 50 -35 11 -10 52 -37 90 -61 39
-23 72 -44 75 -47 3 -2 -9 -16 -27 -32 -33 -30 -73 -32 -73 -4 0 17 -90 76
-141 93 -45 14 -235 139 -268 174 -28 31 -22 34 17 10 l27 -17 -19 22 c-11 13
-27 21 -36 20 -9 -2 -38 17 -66 41 l-49 43 47 -31 c26 -17 50 -31 54 -31z
m5323 56 c-2 -2 -15 -9 -29 -15 -24 -11 -24 -11 -6 3 16 13 49 24 35 12z
m-1770 -13 c-3 -20 3 -23 21 -13 29 16 24 7 -10 -19 l-31 -22 5 28 c5 34 5 33
11 33 3 0 4 -3 4 -7z m-3556 -87 c31 -27 55 -51 53 -53 -4 -4 -120 89 -156
124 -30 31 46 -22 103 -71z m5177 20 c0 -3 -173 -135 -210 -160 -44 -30 16 21
105 88 100 76 105 79 105 72z m-4960 -57 c17 -13 18 -17 5 -10 -33 17 -51 31
-40 31 6 0 21 -10 35 -21z m787 -22 c-1 -5 4 -12 12 -15 9 -3 11 0 6 8 -5 9
-4 11 4 6 6 -4 9 -11 6 -16 -3 -5 8 -16 25 -25 16 -8 30 -18 30 -21 0 -7 -89
43 -107 60 -10 9 -9 12 6 12 11 0 19 -4 18 -9z m-1227 -1 c0 -2 -8 -10 -17
-17 -16 -13 -17 -12 -4 4 13 16 21 21 21 13z m510 -22 c0 -2 -9 0 -20 6 -11 6
-20 13 -20 16 0 2 9 0 20 -6 11 -6 20 -13 20 -16z m-555 -24 c-3 -5 -1 -10 5
-10 7 0 51 -30 99 -67 47 -38 149 -109 226 -160 154 -101 178 -121 171 -140
-7 -18 4 -16 28 4 12 10 8 2 -9 -17 -16 -19 -31 -37 -32 -39 -4 -8 -328 231
-423 312 -111 95 -113 97 -93 112 21 17 37 19 28 5z m1465 -86 c0 -2 -9 0 -20
6 -11 6 -20 13 -20 16 0 2 9 0 20 -6 11 -6 20 -13 20 -16z m34 -6 c-5 -7 -2
-9 8 -6 8 4 15 1 15 -7 0 -10 -6 -11 -24 -2 -17 8 -20 13 -11 19 18 11 20 10
12 -4z m108 -68 c36 -22 53 -26 43 -10 -9 15 9 12 31 -6 18 -14 18 -15 -6 -9
l-25 6 25 -15 c30 -18 44 -20 34 -5 -8 14 -16 17 126 -52 63 -30 145 -68 183
-84 37 -15 66 -30 64 -31 -4 -5 -99 33 -191 75 -37 18 -70 30 -72 28 -3 -2 43
-26 100 -53 58 -27 103 -50 101 -52 -8 -8 -430 200 -454 223 -11 12 11 3 41
-15z m3621 -19 c38 -13 47 -20 44 -36 -1 -11 -8 -19 -15 -17 -11 2 -16 -11
-13 -31 1 -5 -3 -6 -8 -2 -6 3 -8 11 -5 18 2 7 -118 -48 -268 -123 -279 -138
-414 -198 -424 -187 -3 3 -7 24 -9 47 -4 44 0 47 50 53 93 12 279 91 453 193
113 67 111 65 95 71 -18 6 -16 23 2 23 8 0 15 5 15 11 0 7 7 8 18 4 9 -4 38
-15 65 -24z m-4582 2 c13 -16 12 -17 -3 -4 -17 13 -22 21 -14 21 2 0 10 -8 17
-17z m614 -180 c338 -142 588 -229 825 -288 98 -25 151 -44 123 -45 -7 0 -15
-16 -19 -35 -3 -19 -11 -35 -16 -35 -17 0 -170 40 -256 67 -81 26 -83 26 -100
7 -37 -39 -213 -189 -222 -189 -6 0 -11 -4 -12 -9 -2 -5 24 -17 57 -27 108
-32 200 -68 180 -69 l-20 -1 20 -8 c12 -5 23 -4 27 2 4 7 51 -2 140 -26 254
-72 278 -77 405 -98 71 -12 151 -25 178 -29 28 -5 73 -9 102 -9 l51 -1 12 73
c6 39 19 106 30 147 16 64 19 69 19 35 -1 -88 -25 -300 -34 -300 -41 2 -197
20 -335 41 -283 42 -580 115 -796 194 -76 28 -182 66 -234 85 -116 40 -251 96
-345 142 -159 79 -385 209 -385 221 0 8 28 49 62 92 43 55 65 75 71 67 6 -8 7
-6 3 6 -4 11 2 31 14 47 12 16 30 49 41 74 l19 45 133 -61 c72 -33 191 -85
262 -115z m3553 94 c-24 -14 -40 -32 -43 -49 -7 -29 -7 -29 -102 -33 -24 0
-74 -16 -120 -37 -81 -37 -159 -64 -98 -33 64 32 243 113 300 135 33 13 64 28
70 32 5 4 14 8 20 8 5 -1 -7 -11 -27 -23z m442 -142 c-27 -177 -24 -168 -72
-192 -222 -111 -402 -189 -588 -258 -134 -49 -366 -125 -383 -125 -4 0 -7 8
-7 18 0 13 2 14 9 4 6 -11 15 -10 47 2 21 8 73 25 114 37 173 49 458 165 722
292 101 49 117 60 122 84 3 16 12 78 22 138 18 121 22 140 29 133 2 -2 -5 -62
-15 -133z m-23 58 c-3 -10 -5 -4 -5 12 0 17 2 24 5 18 2 -7 2 -21 0 -30z
m-3112 -54 c22 -11 29 -16 15 -13 -14 4 -43 15 -65 25 -22 11 -29 16 -15 13
14 -4 43 -15 65 -25z m3091 -31 c-18 -51 -21 -32 -4 25 7 22 14 35 16 29 2 -6
-4 -30 -12 -54z m-616 42 c-20 -13 -33 -13 -25 0 3 6 14 10 23 10 15 0 15 -2
2 -10z m-2420 -10 c8 -5 11 -10 5 -10 -5 0 -17 5 -25 10 -8 5 -10 10 -5 10 6
0 17 -5 25 -10z m1133 -20 c-29 -17 -56 -30 -60 -30 -12 0 90 60 102 60 6 0
-13 -14 -42 -30z m-1063 -20 c-12 -8 -12 -10 -1 -10 8 0 12 -2 9 -5 -3 -3 -13
-2 -22 1 -14 5 -15 9 -4 15 7 5 18 9 23 9 6 0 3 -5 -5 -10z m101 -30 c22 -9
36 -20 31 -25 -4 -4 0 -6 9 -2 21 7 121 -22 114 -33 -3 -4 5 -6 17 -2 15 4 19
2 13 -7 -5 -9 -1 -12 11 -11 38 4 55 0 48 -12 -5 -7 -2 -9 9 -5 18 7 160 -31
165 -44 2 -4 9 -6 17 -3 7 3 18 -4 25 -15 12 -23 8 -26 -18 -11 -9 5 -36 14
-59 20 -24 6 -43 16 -43 21 0 6 -6 9 -14 6 -18 -7 -208 52 -201 63 3 4 -5 6
-17 2 -15 -4 -19 -2 -13 7 6 10 2 11 -15 6 -17 -5 -21 -4 -15 6 6 9 4 11 -8 6
-9 -3 -44 4 -79 15 -34 12 -57 23 -49 26 11 4 11 6 0 14 -19 13 23 0 72 -22z
m2027 -26 c64 -25 132 -64 132 -74 0 -11 -120 -59 -223 -91 -56 -17 -133 -42
-172 -55 -88 -32 -120 -40 -87 -23 12 7 22 18 22 26 0 8 -4 12 -9 8 -5 -3 -12
-1 -16 4 -3 6 -13 8 -23 5 -14 -5 -14 -3 2 10 11 9 25 16 32 16 7 0 45 18 86
39 40 21 98 46 129 55 31 9 76 24 99 35 l43 19 -34 22 c-21 12 -44 19 -59 16
-91 -17 -88 -17 -50 -2 48 20 55 19 128 -10z m825 -22 l7 -32 -126 -61 c-69
-33 -131 -58 -136 -57 -6 2 20 17 58 32 38 16 95 42 127 59 53 28 57 32 57 65
0 42 5 40 13 -6z m-1008 8 c-11 -5 -27 -9 -35 -9 -9 0 -8 4 5 9 11 5 27 9 35
9 9 0 8 -4 -5 -9z m-58 -16 c-3 -3 -12 -4 -19 -1 -8 3 -5 6 6 6 11 1 17 -2 13
-5z m793 -149 c0 -20 -481 -215 -529 -215 -6 0 -45 -14 -87 -30 -42 -17 -79
-28 -82 -26 -6 7 15 15 256 96 111 38 255 93 320 123 64 30 118 56 120 56 1 1
2 -1 2 -4z m-2485 -40 c77 -14 190 -29 250 -32 l110 -6 -3 -48 c-2 -27 -7 -49
-10 -49 -40 1 -561 71 -570 76 -2 1 2 22 9 48 11 45 13 46 43 41 17 -3 94 -17
171 -30z m1524 -27 c13 -5 21 -11 18 -14 -3 -3 -25 4 -49 15 -40 20 -22 19 31
-1z m-457 -16 c56 -22 158 -53 316 -97 45 -13 125 -31 178 -40 l95 -17 -3 -69
-3 -68 -40 -10 c-114 -29 -490 -85 -635 -95 l-75 -4 65 9 c36 6 133 19 215 30
135 18 245 37 403 70 34 7 52 15 52 25 0 13 -4 13 -28 0 -30 -15 -438 -87
-487 -85 -16 1 11 7 60 15 148 22 378 65 415 78 85 29 33 58 -180 102 -140 28
-346 81 -373 96 -12 6 -35 4 -70 -6 -29 -8 -82 -16 -119 -18 -56 -2 -64 -4
-50 -15 14 -10 8 -10 -28 0 -25 7 -63 12 -85 12 -22 -1 -89 -2 -149 -3 l-109
-2 8 -142 c4 -79 9 -145 12 -148 2 -3 39 -7 81 -10 l77 -5 -70 -6 c-55 -4 -36
-6 85 -9 l155 -3 -175 -7 c-96 -5 -176 -6 -178 -5 -2 2 -5 100 -7 218 l-3 215
117 2 c64 1 177 5 251 10 175 10 213 7 282 -18z m1 -359 c-13 -2 -33 -2 -45 0
-13 2 -3 4 22 4 25 0 35 -2 23 -4z m-106 -9 c-3 -3 -12 -4 -19 -1 -8 3 -5 6 6
6 11 1 17 -2 13 -5z m-194 -21 c-7 -2 -21 -2 -30 0 -10 3 -4 5 12 5 17 0 24
-2 18 -5z m95 -20 c-16 -2 -40 -2 -55 0 -16 2 -3 4 27 4 30 0 43 -2 28 -4z"/>
<path d="M7490 9160 c8 -5 20 -10 25 -10 6 0 3 5 -5 10 -8 5 -19 10 -25 10 -5
0 -3 -5 5 -10z"/>
<path d="M7566 9125 c10 -8 22 -15 27 -15 4 0 30 -11 59 -25 28 -14 54 -23 56
-20 4 4 -143 75 -156 75 -3 0 3 -7 14 -15z"/>
<path d="M7263 9058 c-22 -26 -37 -48 -30 -48 3 0 17 16 31 35 30 39 30 46 -1
13z"/>
<path d="M7732 9047 c10 -8 15 -17 11 -20 -3 -4 -1 -7 5 -7 20 0 13 19 -10 30
-21 10 -21 10 -6 -3z"/>
<path d="M7179 8958 c-12 -23 -12 -23 10 -4 23 21 26 26 11 26 -5 0 -15 -10
-21 -22z"/>
<path d="M7670 8944 c0 -14 3 -14 15 -4 8 7 15 14 15 16 0 2 -7 4 -15 4 -8 0
-15 -7 -15 -16z"/>
<path d="M4575 9020 l-60 -7 55 -1 c30 0 73 3 95 7 l40 9 -35 -1 c-19 0 -62
-3 -95 -7z"/>
<path d="M4784 9001 c-35 -9 -183 -77 -289 -134 -38 -20 -137 -72 -220 -113
-158 -80 -476 -269 -504 -300 -13 -14 67 30 109 60 25 18 77 49 115 70 39 21
82 47 97 58 29 20 331 168 344 168 4 0 21 10 38 23 37 27 222 119 289 143 26
9 50 21 53 25 3 5 4 9 2 8 -2 -1 -17 -4 -34 -8z"/>
<path d="M3928 8933 c7 -3 16 -2 19 1 4 3 -2 6 -13 5 -11 0 -14 -3 -6 -6z"/>
<path d="M3604 8344 c-150 -112 -373 -303 -488 -419 -187 -188 -389 -517 -487
-794 -36 -103 -126 -478 -116 -487 3 -3 10 19 17 48 26 113 91 355 107 398 8
25 35 87 59 139 24 51 44 95 44 96 0 2 21 47 46 102 103 220 294 468 484 630
72 61 328 269 400 325 71 55 20 26 -66 -38z"/>
<path d="M2583 8329 c-33 -21 -40 -29 -25 -29 8 1 70 50 62 50 -3 0 -20 -10
-37 -21z"/>
<path d="M2474 8248 l-19 -23 23 19 c12 11 22 21 22 23 0 8 -8 2 -26 -19z"/>
<path d="M2419 8203 l-24 -28 28 24 c25 23 32 31 24 31 -2 0 -14 -12 -28 -27z"/>
<path d="M2364 8158 l-19 -23 23 19 c21 18 27 26 19 26 -2 0 -12 -10 -23 -22z"/>
<path d="M3054 7768 l-19 -23 23 19 c12 11 22 21 22 23 0 8 -8 2 -26 -19z"/>
<path d="M2786 7384 c-4 -9 -4 -19 -1 -22 2 -3 7 3 11 12 4 9 4 19 1 22 -2 3
-7 -3 -11 -12z"/>
<path d="M2502 6610 c0 -14 2 -19 5 -12 2 6 2 18 0 25 -3 6 -5 1 -5 -13z"/>
<path d="M7870 8539 c-28 -24 -30 -27 -7 -13 26 15 27 15 27 -2 0 -11 -7 -57
-15 -104 -8 -47 -14 -94 -14 -105 1 -11 10 27 20 85 11 58 18 114 17 125 -1
11 1 26 5 33 13 19 4 15 -33 -19z"/>
<path d="M7780 8469 l-45 -41 42 32 c38 28 60 50 51 50 -2 0 -23 -18 -48 -41z"/>
<path d="M7709 8413 c-13 -16 -12 -17 4 -4 9 7 17 15 17 17 0 8 -8 3 -21 -13z"/>
<path d="M7852 8270 c0 -14 2 -19 5 -12 2 6 2 18 0 25 -3 6 -5 1 -5 -13z"/>
<path d="M7841 8224 c0 -11 3 -14 6 -6 3 7 2 16 -1 19 -3 4 -6 -2 -5 -13z"/>
<path d="M7781 7954 c0 -11 3 -14 6 -6 3 7 2 16 -1 19 -3 4 -6 -2 -5 -13z"/>
<path d="M7741 7829 c-7 -22 -11 -43 -8 -45 2 -2 9 14 16 37 7 22 11 43 8 45
-2 2 -9 -14 -16 -37z"/>
<path d="M7485 7774 c-4 -16 -11 -42 -16 -58 -9 -29 -4 -52 5 -25 10 28 25
104 21 107 -2 3 -7 -9 -10 -24z"/>
<path d="M6933 7734 c3 -4 2 -15 -4 -25 -14 -28 -4 -23 15 6 15 23 15 25 0 25
-10 0 -14 -3 -11 -6z"/>
<path d="M6832 7610 c-18 -17 -29 -30 -24 -30 5 0 21 14 37 30 37 38 30 38
-13 0z"/>
<path d="M7271 7624 c0 -11 3 -14 6 -6 3 7 2 16 -1 19 -3 4 -6 -2 -5 -13z"/>
<path d="M6604 7552 c6 -10 1 -11 -18 -6 -17 4 -26 2 -26 -6 0 -6 -8 -10 -17
-9 -21 2 -53 -10 -53 -21 0 -11 131 -30 158 -23 17 4 20 8 11 14 -11 6 -10 9
3 14 15 6 15 8 0 26 -11 13 -18 15 -23 7 -6 -9 -12 -8 -25 3 -12 9 -15 10 -10
1z"/>
<path d="M6756 7545 c-11 -8 -15 -15 -9 -15 6 0 16 7 23 15 16 19 11 19 -14 0z"/>
<path d="M1725 8160 c-3 -5 -1 -10 4 -10 6 0 11 5 11 10 0 6 -2 10 -4 10 -3 0
-8 -4 -11 -10z"/>
<path d="M8445 8185 c-22 -19 -35 -35 -30 -35 11 1 43 27 64 53 20 25 11 20
-34 -18z"/>
<path d="M8710 8183 c0 -5 9 -18 20 -28 11 -10 20 -14 20 -8 0 5 -9 18 -20 28
-11 10 -20 14 -20 8z"/>
<path d="M8775 8110 c10 -11 20 -20 23 -20 3 0 -3 9 -13 20 -10 11 -20 20 -23
20 -3 0 3 -9 13 -20z"/>
<path d="M6113 7708 c-13 -6 -23 -15 -23 -20 0 -4 -8 -8 -17 -9 -10 0 -13 -3
-6 -5 13 -6 68 20 78 36 8 13 -3 12 -32 -2z"/>
<path d="M6018 7665 c-3 -3 -36 -12 -74 -19 -59 -12 -63 -14 -29 -15 46 -1
111 15 120 29 6 10 -8 14 -17 5z"/>
<path d="M8295 7780 c7 -40 79 -191 111 -229 11 -14 44 -69 74 -121 69 -123
127 -205 182 -255 l43 -40 -46 50 c-53 57 -106 134 -175 255 -27 47 -58 100
-70 117 -25 37 -86 159 -109 218 l-15 40 5 -35z"/>
<path d="M8400 7724 c36 -38 96 -109 134 -157 37 -48 70 -87 72 -87 17 0 -200
260 -245 294 -14 11 3 -11 39 -50z"/>
<path d="M8620 7456 c0 -2 8 -10 18 -17 15 -13 16 -12 3 4 -13 16 -21 21 -21
13z"/>
<path d="M8720 7114 c0 -6 17 -26 38 -45 l37 -34 -35 40 c-19 22 -36 42 -37
44 -2 2 -3 0 -3 -5z"/>
<path d="M9030 6946 c0 -2 8 -10 18 -17 15 -13 16 -12 3 4 -13 16 -21 21 -21
13z"/>
<path d="M9080 6880 c12 -16 24 -30 26 -30 3 0 -4 14 -16 30 -12 17 -24 30
-26 30 -3 0 4 -13 16 -30z"/>
<path d="M9126 6813 c10 -16 40 -64 66 -107 56 -93 70 -109 38 -47 -25 50
-110 181 -118 181 -2 0 4 -12 14 -27z"/>
<path d="M9186 6623 c32 -40 61 -73 65 -73 8 0 -31 47 -90 109 -18 20 -7 3 25
-36z"/>
<path d="M9297 6525 c20 -45 62 -115 69 -115 5 0 -65 131 -78 145 -5 6 -1 -8
9 -30z"/>
<path d="M8808 6209 c-162 -17 -456 -112 -647 -208 -90 -46 -296 -182 -432
-287 -126 -97 -304 -251 -313 -272 -3 -7 38 25 92 71 411 355 746 549 1117
648 86 23 145 32 268 38 87 5 161 12 165 15 8 8 -157 5 -250 -5z"/>
<path d="M9088 6203 c12 -2 32 -2 45 0 12 2 2 4 -23 4 -25 0 -35 -2 -22 -4z"/>
<path d="M9500 6086 c0 -2 8 -10 18 -17 15 -13 16 -12 3 4 -13 16 -21 21 -21
13z"/>
<path d="M9561 6034 c22 -28 69 -70 69 -62 0 2 -21 24 -47 48 -31 30 -38 35
-22 14z"/>
<path d="M9680 5896 c0 -2 8 -10 18 -17 15 -13 16 -12 3 4 -13 16 -21 21 -21
13z"/>
<path d="M7289 5583 c-13 -16 -12 -17 4 -4 9 7 17 15 17 17 0 8 -8 3 -21 -13z"/>
<path d="M7244 5528 l-19 -23 23 19 c12 11 22 21 22 23 0 8 -8 2 -26 -19z"/>
<path d="M7200 5475 c-13 -14 -22 -27 -19 -29 2 -2 14 10 27 25 29 36 24 38
-8 4z"/>
<path d="M7374 5408 l-19 -23 23 19 c21 18 27 26 19 26 -2 0 -12 -10 -23 -22z"/>
<path d="M7234 5318 l-29 -33 33 29 c30 28 37 36 29 36 -2 0 -16 -15 -33 -32z"/>
<path d="M6696 4653 c-6 -14 -5 -15 5 -6 7 7 10 15 7 18 -3 3 -9 -2 -12 -12z"/>
<path d="M6515 4319 c-4 -6 -5 -12 -2 -15 2 -3 7 2 10 11 7 17 1 20 -8 4z"/>
<path d="M6470 4224 c0 -8 5 -12 10 -9 6 3 10 10 10 16 0 5 -4 9 -10 9 -5 0
-10 -7 -10 -16z"/>
<path d="M1415 7714 c-9 -15 -12 -23 -6 -20 11 7 35 46 28 46 -3 0 -12 -12
-22 -26z"/>
<path d="M1375 7659 c-4 -6 -5 -12 -2 -15 2 -3 7 2 10 11 7 17 1 20 -8 4z"/>
<path d="M6458 7403 c7 -3 16 -2 19 1 4 3 -2 6 -13 5 -11 0 -14 -3 -6 -6z"/>
<path d="M6553 7373 c9 -2 25 -2 35 0 9 3 1 5 -18 5 -19 0 -27 -2 -17 -5z"/>
<path d="M6400 7309 c-10 -35 -8 -61 4 -48 5 6 15 89 10 89 -2 0 -8 -18 -14
-41z"/>
<path d="M3236 7556 c12 -83 105 -231 180 -288 66 -49 180 -105 229 -112 33
-5 28 -2 -26 18 -73 26 -157 76 -204 122 -64 61 -154 193 -155 226 -1 7 -7 27
-15 43 l-15 30 6 -39z"/>
<path d="M3440 7394 c0 -7 82 -45 91 -42 6 2 -12 13 -40 25 -28 12 -51 20 -51
17z"/>
<path d="M3558 7343 c7 -3 16 -2 19 1 4 3 -2 6 -13 5 -11 0 -14 -3 -6 -6z"/>
<path d="M1530 7468 c-12 -22 -12 -22 6 -6 10 10 15 20 12 24 -4 3 -12 -5 -18
-18z"/>
<path d="M1476 7409 c-10 -17 -16 -33 -13 -35 5 -5 47 49 47 60 0 16 -18 3
-34 -25z"/>
<path d="M943 6925 c-6 -19 -7 -33 -3 -30 12 7 30 65 21 65 -4 0 -12 -16 -18
-35z"/>
<path d="M886 6809 c-16 -33 -27 -61 -25 -64 3 -2 17 23 33 56 15 33 27 62 25
64 -2 2 -17 -23 -33 -56z"/>
<path d="M9250 7300 c6 -11 13 -20 16 -20 2 0 0 9 -6 20 -6 11 -13 20 -16 20
-2 0 0 -9 6 -20z"/>
<path d="M9320 7161 c0 -6 4 -13 10 -16 6 -3 7 1 4 9 -7 18 -14 21 -14 7z"/>
<path d="M6305 7409 c-4 -6 -5 -12 -2 -15 2 -3 7 2 10 11 7 17 1 20 -8 4z"/>
<path d="M5950 7132 c-60 -20 -86 -33 -88 -46 -4 -17 -2 -17 25 2 15 11 58 30
96 42 37 12 67 24 67 26 0 7 -12 4 -100 -24z"/>
<path d="M1703 6770 c-35 -14 -27 -20 10 -8 17 6 34 13 36 14 8 7 -24 3 -46
-6z"/>
<path d="M975 6444 c-19 -15 -22 -21 -9 -15 18 9 52 41 43 41 -2 0 -17 -12
-34 -26z"/>
<path d="M7050 6702 c0 -5 10 -17 21 -28 22 -19 22 -19 10 3 -12 24 -31 39
-31 25z"/>
<path d="M7100 6642 c0 -12 89 -86 96 -80 2 3 -11 17 -30 31 -19 15 -41 34
-50 43 -9 8 -16 11 -16 6z"/>
<path d="M7440 6230 c-7 -13 -7 -20 -1 -20 6 0 15 9 21 20 7 13 7 20 1 20 -6
0 -15 -9 -21 -20z"/>
<path d="M6911 6174 c0 -11 3 -14 6 -6 3 7 2 16 -1 19 -3 4 -6 -2 -5 -13z"/>
<path d="M7002 5655 c0 -16 2 -22 5 -12 2 9 2 23 0 30 -3 6 -5 -1 -5 -18z"/>
<path d="M1462 6099 c-24 -12 -41 -23 -39 -26 2 -2 26 8 53 21 27 14 45 26 39
26 -5 0 -29 -10 -53 -21z"/>
<path d="M6019 6183 l-24 -28 28 24 c25 23 32 31 24 31 -2 0 -14 -12 -28 -27z"/>
<path d="M5746 5023 c-3 -10 -7 -36 -10 -58 -4 -31 -2 -27 9 15 8 30 12 56 10
58 -2 2 -6 -5 -9 -15z"/>
<path d="M3275 6480 c3 -5 10 -10 16 -10 5 0 9 5 9 10 0 6 -7 10 -16 10 -8 0
-12 -4 -9 -10z"/>
<path d="M3433 6243 c-7 -3 -13 -12 -13 -21 1 -15 2 -15 14 1 14 18 14 18 19
0 4 -15 5 -16 6 -1 1 19 -9 27 -26 21z"/>
<path d="M3348 6040 c2 -22 6 -40 8 -40 2 0 4 18 4 40 0 22 -3 40 -8 40 -4 0
-6 -18 -4 -40z"/>
<path d="M2843 5825 c-3 -9 -3 -18 -1 -21 3 -3 8 4 11 16 6 23 -1 27 -10 5z"/>
<path d="M2856 5724 c-4 -20 -5 -38 -3 -40 3 -3 8 11 11 32 4 20 5 38 3 40 -3
3 -8 -11 -11 -32z"/>
<path d="M3521 5314 c0 -11 3 -14 6 -6 3 7 2 16 -1 19 -3 4 -6 -2 -5 -13z"/>
<path d="M3532 5225 c0 -16 2 -22 5 -12 2 9 2 23 0 30 -3 6 -5 -1 -5 -18z"/>
<path d="M2970 5170 c-9 -6 -10 -10 -3 -10 6 0 15 5 18 10 8 12 4 12 -15 0z"/>
<path d="M2802 5065 c0 -16 2 -22 5 -12 2 9 2 23 0 30 -3 6 -5 -1 -5 -18z"/>
<path d="M2992 5010 c0 -19 2 -27 5 -17 2 9 2 25 0 35 -3 9 -5 1 -5 -18z"/>
<path d="M3011 4864 c0 -11 3 -14 6 -6 3 7 2 16 -1 19 -3 4 -6 -2 -5 -13z"/>
<path d="M2870 4815 c0 -8 4 -15 10 -15 5 0 7 7 4 15 -4 8 -8 15 -10 15 -2 0
-4 -7 -4 -15z"/>
<path d="M3310 4450 c0 -5 5 -10 11 -10 5 0 7 5 4 10 -3 6 -8 10 -11 10 -2 0
-4 -4 -4 -10z"/>
<path d="M3630 4135 c19 -19 36 -35 39 -35 3 0 -10 16 -29 35 -19 19 -36 35
-39 35 -3 0 10 -16 29 -35z"/>
<path d="M4100 4156 c0 -3 14 -12 30 -21 17 -9 30 -13 30 -11 0 3 -13 12 -30
21 -16 9 -30 13 -30 11z"/>
<path d="M4020 4106 c0 -2 8 -10 18 -17 15 -13 16 -12 3 4 -13 16 -21 21 -21
13z"/>
<path d="M4220 4086 c0 -7 76 -56 87 -56 4 0 -1 6 -12 13 -51 35 -75 49 -75
43z"/>
<path d="M4010 4076 c0 -2 7 -7 16 -10 8 -3 12 -2 9 4 -6 10 -25 14 -25 6z"/>
<path d="M3744 4007 c17 -34 74 -87 94 -87 8 0 -3 14 -24 31 -22 17 -49 43
-61 57 l-23 27 14 -28z"/>
<path d="M4140 4001 c0 -5 6 -11 13 -14 6 -3 29 -12 50 -21 54 -23 46 -11 -13
19 -27 14 -50 21 -50 16z"/>
<path d="M4568 3923 c7 -3 16 -2 19 1 4 3 -2 6 -13 5 -11 0 -14 -3 -6 -6z"/>
<path d="M4090 6236 c0 -8 4 -17 9 -20 5 -4 7 3 4 14 -6 23 -13 26 -13 6z"/>
<path d="M4249 6096 c23 -27 51 -40 64 -27 8 8 6 11 -9 11 -11 0 -31 8 -44 17
-24 16 -24 16 -11 -1z"/>
<path d="M560 5354 c0 -27 5 -56 10 -64 6 -9 7 6 3 45 -7 75 -13 84 -13 19z"/>
<path d="M9521 5757 c2 -1 13 -9 24 -17 19 -14 19 -14 6 3 -7 9 -18 17 -24 17
-6 0 -8 -1 -6 -3z"/>
<path d="M9762 5095 c0 -16 2 -22 5 -12 2 9 2 23 0 30 -3 6 -5 -1 -5 -18z"/>
<path d="M9700 5014 c-24 -66 -29 -80 -35 -109 -4 -16 -20 -58 -36 -93 -16
-35 -29 -66 -29 -70 0 -3 13 7 30 23 16 16 28 31 25 33 -2 3 0 13 6 24 14 25
60 211 54 216 -2 3 -9 -8 -15 -24z"/>
<path d="M9761 4955 c0 -16 -7 -42 -15 -56 -7 -14 -16 -38 -20 -54 -4 -16 -23
-51 -43 -77 -19 -26 -32 -48 -30 -48 3 0 21 22 41 48 43 59 79 152 73 189 l-4
28 -2 -30z"/>
<path d="M1735 5430 c-13 -6 -15 -9 -5 -9 8 0 22 4 30 9 18 12 2 12 -25 0z"/>
<path d="M1671 5391 c0 -14 17 -48 44 -83 25 -33 45 -55 45 -48 0 7 -18 33
-39 59 -21 25 -41 58 -44 71 -4 25 -4 25 -6 1z"/>
<path d="M2193 5313 c9 -2 25 -2 35 0 9 3 1 5 -18 5 -19 0 -27 -2 -17 -5z"/>
<path d="M1440 5302 c-43 -20 -171 -116 -210 -158 -28 -29 -71 -98 -108 -171
-63 -124 -74 -152 -46 -117 14 17 15 18 10 1 -7 -20 2 -14 91 67 41 38 87 96
64 82 -6 -4 -11 -2 -11 3 0 6 5 12 10 12 6 1 13 2 18 3 4 0 30 20 57 44 54 46
74 59 148 93 75 34 80 65 24 127 -22 24 -24 24 -47 14z m61 -53 c14 -27 -3
-23 -24 6 -15 20 -15 24 -2 19 9 -4 20 -15 26 -25z m-241 -103 c0 -2 -8 -10
-17 -17 -16 -13 -17 -12 -4 4 13 16 21 21 21 13z m-114 -234 c-17 -17 -26 -22
-26 -12 0 19 44 64 48 50 3 -7 -7 -24 -22 -38z"/>
<path d="M975 4387 c10 -15 20 -25 23 -22 3 3 -5 16 -17 28 l-23 22 17 -28z"/>
<path d="M8091 5284 c0 -11 3 -14 6 -6 3 7 2 16 -1 19 -3 4 -6 -2 -5 -13z"/>
<path d="M8032 5130 c0 -19 2 -27 5 -17 2 9 2 25 0 35 -3 9 -5 1 -5 -18z"/>
<path d="M8051 5008 c-1 -21 4 -38 10 -38 5 0 8 -4 5 -9 -4 -5 -1 -22 6 -38 6
-15 10 -34 9 -41 -3 -16 15 -39 41 -53 18 -10 19 -9 7 13 -6 13 -17 26 -23 30
-8 5 -7 8 1 8 9 0 4 19 -13 58 -14 31 -30 68 -34 82 -7 22 -8 21 -9 -12z"/>
<path d="M7975 4873 c-33 -36 -66 -75 -74 -85 -30 -43 25 5 74 65 88 106 88
117 0 20z"/>
<path d="M8156 4877 c3 -10 9 -15 12 -12 3 3 0 11 -7 18 -10 9 -11 8 -5 -6z"/>
<path d="M7859 4753 c-13 -16 -12 -17 4 -4 16 13 21 21 13 21 -2 0 -10 -8 -17
-17z"/>
<path d="M7779 4610 c-13 -10 -19 -19 -13 -20 6 0 19 9 29 20 23 26 14 26 -16
0z"/>
<path d="M8340 4581 c0 -5 5 -13 10 -16 6 -3 10 -2 10 4 0 5 -4 13 -10 16 -5
3 -10 2 -10 -4z"/>
<path d="M8410 4515 c13 -14 26 -25 28 -25 3 0 -5 11 -18 25 -13 14 -26 25
-28 25 -3 0 5 -11 18 -25z"/>
<path d="M8301 4514 c0 -11 3 -14 6 -6 3 7 2 16 -1 19 -3 4 -6 -2 -5 -13z"/>
<path d="M8231 4994 c0 -11 3 -14 6 -6 3 7 2 16 -1 19 -3 4 -6 -2 -5 -13z"/>
<path d="M8281 4858 c16 -31 16 -31 23 -13 3 9 2 13 -4 10 -6 -3 -10 1 -10 9
0 9 -5 16 -10 16 -7 0 -7 -8 1 -22z"/>
<path d="M6466 4605 c-9 -26 -7 -32 5 -12 6 10 9 21 6 23 -2 3 -7 -2 -11 -11z"/>
<path d="M6269 4184 c-8 -9 -21 -40 -30 -68 -9 -28 -20 -60 -24 -71 -5 -11 -5
-18 -2 -15 7 7 78 170 73 170 -2 0 -10 -7 -17 -16z"/>
<path d="M4200 4501 c-69 -33 -102 -53 -97 -57 6 -6 124 54 132 66 8 12 8 12
-35 -9z"/>
<path d="M4245 4500 c-3 -6 1 -7 9 -4 18 7 21 14 7 14 -6 0 -13 -4 -16 -10z"/>
<path d="M6045 4500 c10 -11 25 -20 33 -20 9 0 6 7 -11 20 -14 11 -29 20 -33
20 -4 0 1 -9 11 -20z"/>
<path d="M2788 4403 c12 -2 30 -2 40 0 9 3 -1 5 -23 4 -22 0 -30 -2 -17 -4z"/>
<path d="M2850 4380 c20 -13 33 -13 25 0 -3 6 -14 10 -23 10 -15 0 -15 -2 -2
-10z"/>
<path d="M4463 4195 c-18 -8 -33 -17 -33 -20 0 -5 70 21 79 30 9 9 -14 4 -46
-10z"/>
<path d="M9616 3895 c-3 -9 -6 -22 -5 -28 0 -7 5 -1 10 12 5 13 8 26 5 28 -2
2 -6 -3 -10 -12z"/>
<path d="M9601 3843 c-1 -6 -4 -20 -7 -30 -5 -17 -5 -17 6 0 6 10 9 23 6 30
-3 9 -5 9 -5 0z"/>
<path d="M6126 3595 c-9 -26 -7 -32 5 -12 6 10 9 21 6 23 -2 3 -7 -2 -11 -11z"/>
<path d="M1592 3693 c37 -2 100 -2 140 0 40 1 10 3 -67 3 -77 0 -110 -1 -73
-3z"/>
<path d="M1580 3670 c0 -6 39 -10 98 -10 92 0 100 -2 122 -25 35 -38 45 -30
13 10 l-28 35 -102 0 c-62 0 -103 -4 -103 -10z"/>
<path d="M1568 3233 c23 -2 61 -2 85 0 23 2 4 4 -43 4 -47 0 -66 -2 -42 -4z"/>
<path d="M1750 3203 c12 -26 4 -29 -24 -8 -15 12 -49 15 -145 14 -107 -1 -118
-3 -71 -10 30 -4 89 -9 130 -10 67 -3 78 -6 103 -30 l27 -27 0 27 c0 15 -7 36
-16 47 -14 18 -15 18 -4 -3z"/>
<path d="M1490 3140 c0 -23 15 -27 23 -6 3 8 -1 17 -9 20 -9 4 -14 -1 -14 -14z"/>
<path d="M2350 3368 c0 -3 13 -35 30 -70 16 -34 30 -56 30 -48 -1 15 -59 131
-60 118z"/>
<path d="M2440 3227 c0 -4 11 -30 25 -57 14 -27 25 -56 25 -65 0 -19 61 -167
67 -161 2 2 -6 28 -18 57 -12 30 -30 80 -40 112 -18 53 -59 133 -59 114z"/>
<path d="M2540 3051 c0 -6 4 -13 10 -16 6 -3 7 1 4 9 -7 18 -14 21 -14 7z"/>
<path d="M3160 3427 c0 -5 22 -56 48 -115 27 -59 66 -146 87 -194 21 -49 40
-88 42 -88 7 0 -7 39 -37 105 -15 33 -32 74 -39 90 -18 47 -100 211 -101 202z"/>
<path d="M3407 3191 c-32 -60 -57 -115 -57 -122 0 -8 28 39 61 104 33 66 59
121 56 123 -2 2 -29 -45 -60 -105z"/>
<path d="M2962 3180 c0 -14 2 -19 5 -12 2 6 2 18 0 25 -3 6 -5 1 -5 -13z"/>
<path d="M4526 3671 c-27 -3 -51 -11 -53 -17 -3 -8 11 -9 44 -3 81 13 93 12
94 -13 l0 -23 9 21 c7 19 20 23 91 29 46 4 84 4 86 -1 2 -5 35 -9 74 -9 53 0
73 -3 79 -15 8 -13 9 -12 10 3 0 9 6 17 13 17 8 0 8 3 -2 9 -16 10 -365 11
-445 2z"/>
<path d="M4992 3635 c0 -16 2 -22 5 -12 2 9 2 23 0 30 -3 6 -5 -1 -5 -18z"/>
<path d="M5450 3385 c0 -6 19 -46 41 -90 23 -44 53 -101 65 -127 25 -50 40
-65 24 -24 -25 68 -130 261 -130 241z"/>
<path d="M5704 3245 c-10 -8 -14 -15 -8 -15 6 0 17 7 24 15 16 19 9 19 -16 0z"/>
<path d="M6995 3690 l120 -5 6 -30 c5 -22 7 -24 8 -8 3 51 -2 53 -133 51
l-121 -2 120 -6z"/>
<path d="M6856 3671 c5 -4 32 -5 59 -1 l50 7 -59 2 c-35 0 -56 -3 -50 -8z"/>
<path d="M7055 3673 c11 -3 28 -12 38 -21 9 -8 17 -11 17 -6 0 18 -24 34 -49
33 -21 -1 -22 -2 -6 -6z"/>
<path d="M6713 3234 c7 -7 239 -5 246 2 2 2 -53 4 -124 4 -71 0 -126 -3 -122
-6z"/>
<path d="M6816 3201 c-8 -13 157 -19 167 -6 4 6 10 5 16 -5 11 -16 27 -7 16 9
-8 13 -191 15 -199 2z"/>
<path d="M6763 3025 c0 -38 2 -53 4 -32 2 20 2 52 0 70 -2 17 -4 1 -4 -38z"/>
<path d="M7668 3223 c-17 -21 -98 -177 -98 -190 0 -7 29 42 92 159 10 20 25
35 32 32 6 -2 30 0 51 5 l40 9 -51 1 c-37 1 -55 -4 -66 -16z"/>
<path d="M7811 3080 c6 -16 15 -32 20 -35 4 -3 3 8 -2 25 -6 16 -15 32 -20 35
-4 3 -3 -8 2 -25z"/>
<path d="M8728 3693 c7 -3 16 -2 19 1 4 3 -2 6 -13 5 -11 0 -14 -3 -6 -6z"/>
<path d="M8470 3671 c8 -5 66 -11 129 -15 63 -3 117 -9 120 -14 3 -4 24 -21
46 -38 l40 -29 -30 37 c-48 58 -77 68 -207 68 -66 0 -107 -4 -98 -9z"/>
<path d="M8523 3233 c20 -2 54 -2 75 0 20 2 3 4 -38 4 -41 0 -58 -2 -37 -4z"/>
<path d="M8648 3233 c6 -2 18 -2 25 0 6 3 1 5 -13 5 -14 0 -19 -2 -12 -5z"/>
<path d="M8333 3203 c9 -2 25 -2 35 0 9 3 1 5 -18 5 -19 0 -27 -2 -17 -5z"/>
<path d="M8445 3200 c75 -12 223 -12 205 0 -8 5 -69 9 -135 9 -96 -1 -110 -3
-70 -9z"/>
<path d="M8677 3190 c3 -11 7 -20 9 -20 2 0 4 9 4 20 0 11 -4 20 -9 20 -5 0
-7 -9 -4 -20z"/>
<path d="M8621 3167 c2 -2 20 -14 39 -26 l35 -23 -30 26 c-16 14 -34 26 -39
26 -5 0 -7 -1 -5 -3z"/>
<path d="M8725 2800 c-3 -5 -2 -10 4 -10 5 0 13 5 16 10 3 6 2 10 -4 10 -5 0
-13 -4 -16 -10z"/>
<path d="M6104 2907 c-3 -9 -1 -24 4 -33 9 -16 10 -15 17 5 8 27 -11 54 -21
28z m13 -19 c-3 -8 -6 -5 -6 6 -1 11 2 17 5 13 3 -3 4 -12 1 -19z"/>
<path d="M5805 2287 c-25 -29 -26 -40 -2 -18 15 14 27 26 27 28 0 7 -16 1 -25
-10z"/>
<path d="M3370 2230 c46 -25 63 -25 25 0 -16 11 -37 20 -45 20 -8 -1 1 -9 20
-20z"/>
<path d="M3763 2003 c19 -30 355 -199 457 -228 52 -15 4 13 -60 35 -60 21
-356 168 -389 194 -11 8 -13 8 -8 -1z"/>
<path d="M4325 1731 c22 -10 51 -21 65 -25 14 -3 7 3 -15 13 -22 10 -51 21
-65 25 -14 3 -7 -3 15 -13z"/>
<path d="M4468 1670 c12 -5 30 -6 39 -3 12 5 14 3 8 -7 -5 -9 -4 -11 3 -6 7 4
17 4 24 0 6 -4 25 -8 42 -9 l31 -2 -35 15 c-19 8 -57 16 -85 19 -39 3 -45 1
-27 -7z"/>
<path d="M4728 1603 c6 -2 18 -2 25 0 6 3 1 5 -13 5 -14 0 -19 -2 -12 -5z"/>
<path d="M6640 2245 c-7 -9 -8 -15 -2 -15 5 0 12 7 16 15 3 8 4 15 2 15 -2 0
-9 -7 -16 -15z"/>
<path d="M7551 1860 c-13 -11 -19 -20 -14 -20 6 0 18 9 28 20 23 25 17 25 -14
0z"/>
<path d="M7980 1850 c-14 -11 -20 -20 -14 -20 6 0 19 9 29 20 23 25 17 25 -15
0z"/>
<path d="M3950 1715 c59 -32 77 -32 21 0 -23 14 -48 25 -55 25 -6 -1 9 -12 34
-25z"/>
<path d="M3065 1700 c-4 -6 -11 -7 -17 -4 -6 4 -8 2 -4 -4 7 -12 -53 -114 -64
-107 -5 3 -24 -17 -44 -44 -37 -50 -45 -96 -16 -98 18 -2 139 -73 123 -73 -6
0 -32 12 -57 26 -26 15 -49 24 -52 21 -3 -3 4 -8 15 -12 13 -4 19 -11 15 -18
-4 -7 -4 -9 1 -5 7 7 54 -14 85 -39 22 -17 133 -57 151 -55 9 2 79 -26 155
-61 77 -36 196 -86 266 -112 l127 -47 33 26 c55 44 88 80 88 97 0 9 7 22 15
29 13 11 14 10 8 -6 -6 -17 -5 -17 10 -5 9 7 17 19 17 25 0 6 11 19 24 28 23
17 24 17 19 -2 -3 -10 -12 -21 -22 -23 -14 -4 -14 -5 0 -6 8 0 26 10 39 24
l23 24 -24 10 c-13 6 -112 42 -219 81 -107 39 -221 82 -252 97 l-57 26 22 19
22 19 -25 -7 c-14 -3 -27 -7 -30 -7 -12 -2 -87 27 -101 40 -11 9 -27 12 -45 7
-27 -6 -28 -5 -10 8 18 14 13 18 -65 60 -137 74 -147 79 -154 68z m-135 -200
c-6 -11 -13 -20 -16 -20 -2 0 0 9 6 20 6 11 13 20 16 20 2 0 0 -9 -6 -20z
m225 -182 c6 -5 -8 -2 -30 7 -22 9 -44 21 -50 26 -5 6 8 3 30 -6 22 -9 45 -21
50 -27z"/>
<path d="M4060 932 c0 -10 191 -53 203 -45 5 3 7 1 4 -4 -13 -21 550 -119 569
-100 3 3 -16 9 -43 12 -57 8 -307 50 -379 64 -28 5 -77 19 -110 30 -32 11 -77
20 -99 20 -22 0 -64 7 -92 15 -29 8 -53 11 -53 8z"/>
<path d="M4500 1480 c8 -5 20 -10 25 -10 6 0 3 5 -5 10 -8 5 -19 10 -25 10 -5
0 -3 -5 5 -10z"/>
</g>
</svg>
